G75*
%MOIN*%
%OFA0B0*%
%FSLAX24Y24*%
%IPPOS*%
%LPD*%
%AMOC8*
5,1,8,0,0,1.08239X$1,22.5*
%
%ADD10R,0.0749X0.1458*%
%ADD11C,0.0789*%
%ADD12C,0.0671*%
%ADD13R,0.1458X0.0749*%
%ADD14R,0.0540X0.0710*%
%ADD15R,0.0060X0.0720*%
%ADD16R,0.0710X0.0710*%
%ADD17OC8,0.0680*%
%ADD18C,0.0437*%
%ADD19OC8,0.0476*%
D10*
X004430Y001743D03*
X005430Y001743D03*
X006430Y001743D03*
X007430Y001743D03*
X008430Y001743D03*
X009430Y001743D03*
X010430Y001743D03*
X011430Y001743D03*
X012430Y001743D03*
X013430Y001743D03*
X014430Y001743D03*
X015430Y001743D03*
X016430Y001743D03*
X017430Y001743D03*
X018430Y001743D03*
X019430Y001743D03*
X020430Y001743D03*
X021430Y001743D03*
X022430Y001743D03*
X023430Y001743D03*
X023430Y009617D03*
X022430Y009617D03*
X021430Y009617D03*
X020430Y009617D03*
X019430Y009617D03*
X018430Y009617D03*
X017430Y009617D03*
X016430Y009617D03*
X015430Y009617D03*
X014430Y009617D03*
X013430Y009617D03*
X012430Y009617D03*
X011430Y009617D03*
X010430Y009617D03*
X009430Y009617D03*
X008430Y009617D03*
X007430Y009617D03*
X006430Y009617D03*
X005430Y009617D03*
X004430Y009617D03*
D11*
X023379Y006753D03*
X023379Y004607D03*
D12*
X022186Y004725D03*
X022186Y006635D03*
D13*
X004117Y006680D03*
X004117Y005680D03*
X004117Y004680D03*
D14*
X001380Y001180D03*
X001980Y001180D03*
D15*
X001680Y001180D03*
D16*
X001680Y010430D03*
D17*
X001180Y008180D03*
X002180Y008180D03*
X002180Y007180D03*
X001180Y007180D03*
X001180Y006180D03*
X002180Y006180D03*
X002180Y005180D03*
X001180Y005180D03*
X001180Y004180D03*
X002180Y004180D03*
X002180Y003180D03*
X001180Y003180D03*
D18*
X017180Y002930D03*
X017680Y006930D03*
X020430Y007430D03*
X022430Y007930D03*
X023430Y008430D03*
D19*
X022430Y003430D03*
M02*
