G75*
%MOIN*%
%OFA0B0*%
%FSLAX24Y24*%
%IPPOS*%
%LPD*%
%AMOC8*
5,1,8,0,0,1.08239X$1,22.5*
%
%ADD10R,0.0669X0.1378*%
%ADD11R,0.1378X0.0669*%
%ADD12R,0.0460X0.0630*%
%ADD13R,0.0630X0.0630*%
%ADD14OC8,0.0600*%
%ADD15C,0.0357*%
%ADD16C,0.0160*%
%ADD17OC8,0.0396*%
D10*
X004430Y001743D03*
X005430Y001743D03*
X006430Y001743D03*
X007430Y001743D03*
X008430Y001743D03*
X009430Y001743D03*
X010430Y001743D03*
X011430Y001743D03*
X012430Y001743D03*
X013430Y001743D03*
X014430Y001743D03*
X015430Y001743D03*
X016430Y001743D03*
X017430Y001743D03*
X018430Y001743D03*
X019430Y001743D03*
X020430Y001743D03*
X021430Y001743D03*
X022430Y001743D03*
X023430Y001743D03*
X023430Y009617D03*
X022430Y009617D03*
X021430Y009617D03*
X020430Y009617D03*
X019430Y009617D03*
X018430Y009617D03*
X017430Y009617D03*
X016430Y009617D03*
X015430Y009617D03*
X014430Y009617D03*
X013430Y009617D03*
X012430Y009617D03*
X011430Y009617D03*
X010430Y009617D03*
X009430Y009617D03*
X008430Y009617D03*
X007430Y009617D03*
X006430Y009617D03*
X005430Y009617D03*
X004430Y009617D03*
D11*
X004117Y006680D03*
X004117Y005680D03*
X004117Y004680D03*
D12*
X001980Y001180D03*
X001380Y001180D03*
D13*
X001680Y010430D03*
D14*
X001180Y008180D03*
X002180Y008180D03*
X002180Y007180D03*
X001180Y007180D03*
X001180Y006180D03*
X002180Y006180D03*
X002180Y005180D03*
X001180Y005180D03*
X001180Y004180D03*
X002180Y004180D03*
X002180Y003180D03*
X001180Y003180D03*
D15*
X017180Y002930D03*
X017680Y006930D03*
X020430Y007430D03*
X022430Y007930D03*
X023430Y008430D03*
D16*
X000660Y010700D02*
X000660Y000660D01*
X024192Y000660D01*
X024192Y004390D01*
X024086Y004135D01*
X023851Y003900D01*
X023545Y003773D01*
X023213Y003773D01*
X022906Y003900D01*
X022688Y004118D01*
X022675Y004118D01*
X022625Y004068D01*
X022340Y003950D01*
X022032Y003950D01*
X021747Y004068D01*
X021529Y004286D01*
X021411Y004571D01*
X021411Y004879D01*
X021529Y005164D01*
X021747Y005383D01*
X021778Y005395D01*
X021778Y005965D01*
X021747Y005977D01*
X021529Y006196D01*
X021411Y006481D01*
X021411Y006789D01*
X021529Y007074D01*
X021747Y007292D01*
X022032Y007410D01*
X022340Y007410D01*
X022625Y007292D01*
X022675Y007242D01*
X022688Y007242D01*
X022906Y007460D01*
X023213Y007587D01*
X023545Y007587D01*
X023851Y007460D01*
X024086Y007225D01*
X024192Y006970D01*
X024192Y010700D01*
X002155Y010700D01*
X002155Y010670D01*
X002728Y010670D01*
X002816Y010633D01*
X002883Y010566D01*
X002883Y010566D01*
X003066Y010383D01*
X003066Y010383D01*
X003133Y010316D01*
X003170Y010228D01*
X003170Y008779D01*
X003279Y008670D01*
X015081Y008670D01*
X015179Y008768D01*
X015029Y008768D01*
X014935Y008862D01*
X014935Y010372D01*
X015029Y010466D01*
X015831Y010466D01*
X015925Y010372D01*
X015925Y010364D01*
X015928Y010375D01*
X015951Y010417D01*
X015985Y010450D01*
X016026Y010474D01*
X016072Y010486D01*
X016350Y010486D01*
X016350Y009697D01*
X016510Y009697D01*
X016510Y010486D01*
X016788Y010486D01*
X016834Y010474D01*
X016875Y010450D01*
X016909Y010417D01*
X016932Y010375D01*
X016935Y010364D01*
X016935Y010372D01*
X017029Y010466D01*
X017831Y010466D01*
X017925Y010372D01*
X017925Y008862D01*
X017831Y008768D01*
X017670Y008768D01*
X017670Y008382D01*
X017633Y008294D01*
X017566Y008227D01*
X017316Y007977D01*
X017228Y007940D01*
X003279Y007940D01*
X003170Y007831D01*
X003170Y001382D01*
X003133Y001294D01*
X002816Y000977D01*
X002728Y000940D01*
X002370Y000940D01*
X002370Y000799D01*
X002276Y000705D01*
X001684Y000705D01*
X001680Y000709D01*
X001676Y000705D01*
X001084Y000705D01*
X000990Y000799D01*
X000990Y001561D01*
X001084Y001655D01*
X001140Y001655D01*
X001140Y002428D01*
X001177Y002516D01*
X001361Y002700D01*
X001200Y002700D01*
X001200Y003160D01*
X001160Y003160D01*
X001160Y002700D01*
X000981Y002700D01*
X000700Y002981D01*
X000700Y003160D01*
X001160Y003160D01*
X001160Y003200D01*
X001160Y003660D01*
X000981Y003660D01*
X000700Y003379D01*
X000700Y003200D01*
X001160Y003200D01*
X001200Y003200D01*
X001200Y003660D01*
X001379Y003660D01*
X001440Y003599D01*
X001440Y003728D01*
X001477Y003816D01*
X001720Y004059D01*
X001720Y004371D01*
X001989Y004640D01*
X002371Y004640D01*
X002640Y004371D01*
X002640Y003989D01*
X002371Y003720D01*
X002059Y003720D01*
X001920Y003581D01*
X001920Y003571D01*
X001989Y003640D01*
X002371Y003640D01*
X002640Y003371D01*
X002640Y002989D01*
X002371Y002720D01*
X001989Y002720D01*
X001920Y002789D01*
X001920Y002632D01*
X001883Y002544D01*
X001816Y002477D01*
X001620Y002281D01*
X001620Y001655D01*
X001676Y001655D01*
X001680Y001651D01*
X001684Y001655D01*
X002276Y001655D01*
X002370Y001561D01*
X002370Y001420D01*
X002581Y001420D01*
X002690Y001529D01*
X002690Y007978D01*
X002727Y008066D01*
X002966Y008305D01*
X002794Y008477D01*
X002727Y008544D01*
X002690Y008632D01*
X002690Y010081D01*
X002581Y010190D01*
X002155Y010190D01*
X002155Y010049D01*
X002061Y009955D01*
X001299Y009955D01*
X001205Y010049D01*
X001205Y010700D01*
X000660Y010700D01*
X000660Y010641D02*
X001205Y010641D01*
X001205Y010483D02*
X000660Y010483D01*
X000660Y010324D02*
X001205Y010324D01*
X001205Y010166D02*
X000660Y010166D01*
X000660Y010007D02*
X001247Y010007D01*
X001680Y010430D02*
X002680Y010430D01*
X002930Y010180D01*
X002930Y008680D01*
X003180Y008430D01*
X015180Y008430D01*
X015430Y008680D01*
X015430Y009617D01*
X014935Y009690D02*
X014925Y009690D01*
X014925Y009849D02*
X014935Y009849D01*
X014925Y010007D02*
X014935Y010007D01*
X014925Y010166D02*
X014935Y010166D01*
X014925Y010324D02*
X014935Y010324D01*
X014925Y010372D02*
X014831Y010466D01*
X014029Y010466D01*
X013935Y010372D01*
X013935Y008862D01*
X014029Y008768D01*
X014831Y008768D01*
X014925Y008862D01*
X014925Y010372D01*
X013935Y010324D02*
X013925Y010324D01*
X013925Y010372D02*
X013831Y010466D01*
X013029Y010466D01*
X012935Y010372D01*
X012935Y008862D01*
X013029Y008768D01*
X013831Y008768D01*
X013925Y008862D01*
X013925Y010372D01*
X013925Y010166D02*
X013935Y010166D01*
X013925Y010007D02*
X013935Y010007D01*
X013925Y009849D02*
X013935Y009849D01*
X013925Y009690D02*
X013935Y009690D01*
X013925Y009532D02*
X013935Y009532D01*
X013925Y009373D02*
X013935Y009373D01*
X013925Y009215D02*
X013935Y009215D01*
X013925Y009056D02*
X013935Y009056D01*
X013925Y008898D02*
X013935Y008898D01*
X014925Y008898D02*
X014935Y008898D01*
X014925Y009056D02*
X014935Y009056D01*
X014925Y009215D02*
X014935Y009215D01*
X014925Y009373D02*
X014935Y009373D01*
X014925Y009532D02*
X014935Y009532D01*
X015831Y008768D02*
X015925Y008862D01*
X015925Y008870D01*
X015928Y008859D01*
X015951Y008818D01*
X015985Y008784D01*
X016026Y008760D01*
X016072Y008748D01*
X016350Y008748D01*
X016350Y009537D01*
X016510Y009537D01*
X016510Y008748D01*
X016788Y008748D01*
X016834Y008760D01*
X016875Y008784D01*
X016909Y008818D01*
X016932Y008859D01*
X016935Y008870D01*
X016935Y008862D01*
X017029Y008768D01*
X017190Y008768D01*
X017190Y008529D01*
X017081Y008420D01*
X015509Y008420D01*
X015633Y008544D01*
X015670Y008632D01*
X015670Y008728D01*
X015670Y008768D01*
X015831Y008768D01*
X015670Y008739D02*
X017190Y008739D01*
X017190Y008581D02*
X015649Y008581D01*
X015511Y008422D02*
X017083Y008422D01*
X017180Y008180D02*
X017430Y008430D01*
X017430Y009617D01*
X017925Y009690D02*
X017935Y009690D01*
X017925Y009849D02*
X017935Y009849D01*
X017925Y010007D02*
X017935Y010007D01*
X017925Y010166D02*
X017935Y010166D01*
X017925Y010324D02*
X017935Y010324D01*
X017935Y010372D02*
X017935Y008862D01*
X018029Y008768D01*
X018190Y008768D01*
X018190Y008529D01*
X016977Y007316D01*
X016940Y007228D01*
X016940Y003169D01*
X016893Y003122D01*
X016842Y002997D01*
X016842Y002863D01*
X016893Y002738D01*
X016988Y002643D01*
X017112Y002592D01*
X017029Y002592D01*
X016935Y002498D01*
X016935Y002490D01*
X016932Y002501D01*
X016909Y002542D01*
X016875Y002576D01*
X016834Y002600D01*
X016788Y002612D01*
X016510Y002612D01*
X016510Y001823D01*
X016350Y001823D01*
X016350Y002612D01*
X016072Y002612D01*
X016026Y002600D01*
X015985Y002576D01*
X015951Y002542D01*
X015928Y002501D01*
X015925Y002490D01*
X015925Y002498D01*
X015831Y002592D01*
X015029Y002592D01*
X014935Y002498D01*
X014935Y000988D01*
X015029Y000894D01*
X015831Y000894D01*
X015925Y000988D01*
X015925Y000996D01*
X015928Y000985D01*
X015951Y000943D01*
X015985Y000910D01*
X016026Y000886D01*
X016072Y000874D01*
X016350Y000874D01*
X016350Y001663D01*
X016510Y001663D01*
X016510Y000874D01*
X016788Y000874D01*
X016834Y000886D01*
X016875Y000910D01*
X016909Y000943D01*
X016932Y000985D01*
X016935Y000996D01*
X016935Y000988D01*
X017029Y000894D01*
X017831Y000894D01*
X017925Y000988D01*
X017925Y002498D01*
X017831Y002592D01*
X017248Y002592D01*
X017372Y002643D01*
X017467Y002738D01*
X017518Y002863D01*
X017518Y002997D01*
X017467Y003122D01*
X017420Y003169D01*
X017420Y006711D01*
X017488Y006643D01*
X017613Y006592D01*
X017747Y006592D01*
X017872Y006643D01*
X017967Y006738D01*
X018018Y006863D01*
X018018Y006929D01*
X019566Y008477D01*
X019633Y008544D01*
X019670Y008632D01*
X019670Y008768D01*
X019831Y008768D01*
X019925Y008862D01*
X019925Y010372D01*
X019831Y010466D01*
X019029Y010466D01*
X018935Y010372D01*
X018935Y008862D01*
X019029Y008768D01*
X019179Y008768D01*
X017679Y007268D01*
X017613Y007268D01*
X017604Y007265D01*
X018566Y008227D01*
X018633Y008294D01*
X018670Y008382D01*
X018670Y008768D01*
X018831Y008768D01*
X018925Y008862D01*
X018925Y010372D01*
X018831Y010466D01*
X018029Y010466D01*
X017935Y010372D01*
X018925Y010324D02*
X018935Y010324D01*
X018925Y010166D02*
X018935Y010166D01*
X018925Y010007D02*
X018935Y010007D01*
X018925Y009849D02*
X018935Y009849D01*
X018925Y009690D02*
X018935Y009690D01*
X018925Y009532D02*
X018935Y009532D01*
X018925Y009373D02*
X018935Y009373D01*
X018925Y009215D02*
X018935Y009215D01*
X018925Y009056D02*
X018935Y009056D01*
X018925Y008898D02*
X018935Y008898D01*
X019150Y008739D02*
X018670Y008739D01*
X018670Y008581D02*
X018991Y008581D01*
X018833Y008422D02*
X018670Y008422D01*
X018430Y008430D02*
X018430Y009617D01*
X017935Y009532D02*
X017925Y009532D01*
X017925Y009373D02*
X017935Y009373D01*
X017925Y009215D02*
X017935Y009215D01*
X017925Y009056D02*
X017935Y009056D01*
X017925Y008898D02*
X017935Y008898D01*
X018190Y008739D02*
X017670Y008739D01*
X017670Y008581D02*
X018190Y008581D01*
X018083Y008422D02*
X017670Y008422D01*
X017603Y008264D02*
X017924Y008264D01*
X017766Y008105D02*
X017444Y008105D01*
X017180Y008180D02*
X003180Y008180D01*
X002930Y007930D01*
X002930Y001430D01*
X002680Y001180D01*
X001980Y001180D01*
X002370Y001448D02*
X002609Y001448D01*
X002690Y001607D02*
X002325Y001607D01*
X002690Y001765D02*
X001620Y001765D01*
X001620Y001924D02*
X002690Y001924D01*
X002690Y002082D02*
X001620Y002082D01*
X001620Y002241D02*
X002690Y002241D01*
X002690Y002399D02*
X001738Y002399D01*
X001889Y002558D02*
X002690Y002558D01*
X002690Y002716D02*
X001920Y002716D01*
X001680Y002680D02*
X001680Y003680D01*
X002180Y004180D01*
X002640Y004143D02*
X002690Y004143D01*
X002690Y004301D02*
X002640Y004301D01*
X002690Y004460D02*
X002551Y004460D01*
X002690Y004618D02*
X002393Y004618D01*
X002371Y004720D02*
X001989Y004720D01*
X001720Y004989D01*
X001720Y005371D01*
X001989Y005640D01*
X002371Y005640D01*
X002640Y005371D01*
X002640Y004989D01*
X002371Y004720D01*
X002427Y004777D02*
X002690Y004777D01*
X002690Y004935D02*
X002586Y004935D01*
X002640Y005094D02*
X002690Y005094D01*
X002690Y005252D02*
X002640Y005252D01*
X002600Y005411D02*
X002690Y005411D01*
X002690Y005569D02*
X002442Y005569D01*
X002371Y005720D02*
X001989Y005720D01*
X001720Y005989D01*
X001720Y006371D01*
X001989Y006640D01*
X002371Y006640D01*
X002640Y006371D01*
X002640Y005989D01*
X002371Y005720D01*
X002378Y005728D02*
X002690Y005728D01*
X002690Y005886D02*
X002537Y005886D01*
X002640Y006045D02*
X002690Y006045D01*
X002690Y006203D02*
X002640Y006203D01*
X002640Y006362D02*
X002690Y006362D01*
X002690Y006520D02*
X002491Y006520D01*
X002690Y006679D02*
X000660Y006679D01*
X000660Y006520D02*
X000869Y006520D01*
X000989Y006640D02*
X000720Y006371D01*
X000720Y005989D01*
X000989Y005720D01*
X001371Y005720D01*
X001640Y005989D01*
X001640Y006371D01*
X001371Y006640D01*
X000989Y006640D01*
X000989Y006720D02*
X001371Y006720D01*
X001640Y006989D01*
X001640Y007371D01*
X001371Y007640D01*
X000989Y007640D01*
X000720Y007371D01*
X000720Y006989D01*
X000989Y006720D01*
X000872Y006837D02*
X000660Y006837D01*
X000660Y006996D02*
X000720Y006996D01*
X000720Y007154D02*
X000660Y007154D01*
X000660Y007313D02*
X000720Y007313D01*
X000660Y007471D02*
X000820Y007471D01*
X000979Y007630D02*
X000660Y007630D01*
X000660Y007788D02*
X000921Y007788D01*
X000989Y007720D02*
X001371Y007720D01*
X001640Y007989D01*
X001640Y008371D01*
X001371Y008640D01*
X000989Y008640D01*
X000720Y008371D01*
X000720Y007989D01*
X000989Y007720D01*
X000763Y007947D02*
X000660Y007947D01*
X000660Y008105D02*
X000720Y008105D01*
X000720Y008264D02*
X000660Y008264D01*
X000660Y008422D02*
X000771Y008422D01*
X000660Y008581D02*
X000930Y008581D01*
X000660Y008739D02*
X002690Y008739D01*
X002711Y008581D02*
X002430Y008581D01*
X002371Y008640D02*
X001989Y008640D01*
X001720Y008371D01*
X001720Y007989D01*
X001989Y007720D01*
X002371Y007720D01*
X002640Y007989D01*
X002640Y008371D01*
X002371Y008640D01*
X002589Y008422D02*
X002849Y008422D01*
X002924Y008264D02*
X002640Y008264D01*
X002640Y008105D02*
X002766Y008105D01*
X002690Y007947D02*
X002597Y007947D01*
X002690Y007788D02*
X002439Y007788D01*
X002371Y007640D02*
X001989Y007640D01*
X001720Y007371D01*
X001720Y006989D01*
X001989Y006720D01*
X002371Y006720D01*
X002640Y006989D01*
X002640Y007371D01*
X002371Y007640D01*
X002381Y007630D02*
X002690Y007630D01*
X002690Y007471D02*
X002540Y007471D01*
X002640Y007313D02*
X002690Y007313D01*
X002690Y007154D02*
X002640Y007154D01*
X002640Y006996D02*
X002690Y006996D01*
X002690Y006837D02*
X002488Y006837D01*
X003170Y006837D02*
X003268Y006837D01*
X003268Y006996D02*
X003170Y006996D01*
X003268Y007081D02*
X003362Y007175D01*
X004872Y007175D01*
X004966Y007081D01*
X004966Y006279D01*
X004872Y006185D01*
X003362Y006185D01*
X003268Y006279D01*
X003268Y007081D01*
X003341Y007154D02*
X003170Y007154D01*
X003170Y007313D02*
X016975Y007313D01*
X017132Y007471D02*
X003170Y007471D01*
X003170Y007630D02*
X017290Y007630D01*
X017449Y007788D02*
X003170Y007788D01*
X001979Y007630D02*
X001381Y007630D01*
X001439Y007788D02*
X001921Y007788D01*
X001763Y007947D02*
X001597Y007947D01*
X001640Y008105D02*
X001720Y008105D01*
X001720Y008264D02*
X001640Y008264D01*
X001589Y008422D02*
X001771Y008422D01*
X001930Y008581D02*
X001430Y008581D01*
X000660Y008898D02*
X002690Y008898D01*
X002690Y009056D02*
X000660Y009056D01*
X000660Y009215D02*
X002690Y009215D01*
X002690Y009373D02*
X000660Y009373D01*
X000660Y009532D02*
X002690Y009532D01*
X002690Y009690D02*
X000660Y009690D01*
X000660Y009849D02*
X002690Y009849D01*
X002690Y010007D02*
X002113Y010007D01*
X002155Y010166D02*
X002605Y010166D01*
X003125Y010324D02*
X003935Y010324D01*
X003935Y010372D02*
X003935Y008862D01*
X004029Y008768D01*
X004831Y008768D01*
X004925Y008862D01*
X004925Y010372D01*
X004831Y010466D01*
X004029Y010466D01*
X003935Y010372D01*
X003935Y010166D02*
X003170Y010166D01*
X003170Y010007D02*
X003935Y010007D01*
X003935Y009849D02*
X003170Y009849D01*
X003170Y009690D02*
X003935Y009690D01*
X003935Y009532D02*
X003170Y009532D01*
X003170Y009373D02*
X003935Y009373D01*
X003935Y009215D02*
X003170Y009215D01*
X003170Y009056D02*
X003935Y009056D01*
X003935Y008898D02*
X003170Y008898D01*
X003210Y008739D02*
X015150Y008739D01*
X016350Y008898D02*
X016510Y008898D01*
X016510Y009056D02*
X016350Y009056D01*
X016350Y009215D02*
X016510Y009215D01*
X016510Y009373D02*
X016350Y009373D01*
X016350Y009532D02*
X016510Y009532D01*
X016510Y009849D02*
X016350Y009849D01*
X016350Y010007D02*
X016510Y010007D01*
X016510Y010166D02*
X016350Y010166D01*
X016350Y010324D02*
X016510Y010324D01*
X016510Y010483D02*
X016350Y010483D01*
X016059Y010483D02*
X011801Y010483D01*
X011788Y010486D02*
X011510Y010486D01*
X011510Y009697D01*
X011350Y009697D01*
X011350Y010486D01*
X011072Y010486D01*
X011026Y010474D01*
X010985Y010450D01*
X010951Y010417D01*
X010928Y010375D01*
X010925Y010364D01*
X010925Y010372D01*
X010831Y010466D01*
X010029Y010466D01*
X009935Y010372D01*
X009935Y008862D01*
X010029Y008768D01*
X010831Y008768D01*
X010925Y008862D01*
X010925Y008870D01*
X010928Y008859D01*
X010951Y008818D01*
X010985Y008784D01*
X011026Y008760D01*
X011072Y008748D01*
X011350Y008748D01*
X011350Y009537D01*
X011510Y009537D01*
X011510Y008748D01*
X011788Y008748D01*
X011834Y008760D01*
X011875Y008784D01*
X011909Y008818D01*
X011932Y008859D01*
X011935Y008870D01*
X011935Y008862D01*
X012029Y008768D01*
X012831Y008768D01*
X012925Y008862D01*
X012925Y010372D01*
X012831Y010466D01*
X012029Y010466D01*
X011935Y010372D01*
X011935Y010364D01*
X011932Y010375D01*
X011909Y010417D01*
X011875Y010450D01*
X011834Y010474D01*
X011788Y010486D01*
X011510Y010483D02*
X011350Y010483D01*
X011059Y010483D02*
X006801Y010483D01*
X006788Y010486D02*
X006510Y010486D01*
X006510Y009697D01*
X006350Y009697D01*
X006350Y010486D01*
X006072Y010486D01*
X006026Y010474D01*
X005985Y010450D01*
X005951Y010417D01*
X005928Y010375D01*
X005925Y010364D01*
X005925Y010372D01*
X005831Y010466D01*
X005029Y010466D01*
X004935Y010372D01*
X004935Y008862D01*
X005029Y008768D01*
X005831Y008768D01*
X005925Y008862D01*
X005925Y008870D01*
X005928Y008859D01*
X005951Y008818D01*
X005985Y008784D01*
X006026Y008760D01*
X006072Y008748D01*
X006350Y008748D01*
X006350Y009537D01*
X006510Y009537D01*
X006510Y008748D01*
X006788Y008748D01*
X006834Y008760D01*
X006875Y008784D01*
X006909Y008818D01*
X006932Y008859D01*
X006935Y008870D01*
X006935Y008862D01*
X007029Y008768D01*
X007831Y008768D01*
X007925Y008862D01*
X007925Y010372D01*
X007831Y010466D01*
X007029Y010466D01*
X006935Y010372D01*
X006935Y010364D01*
X006932Y010375D01*
X006909Y010417D01*
X006875Y010450D01*
X006834Y010474D01*
X006788Y010486D01*
X006510Y010483D02*
X006350Y010483D01*
X006059Y010483D02*
X002967Y010483D01*
X002798Y010641D02*
X024192Y010641D01*
X024192Y010483D02*
X021801Y010483D01*
X021788Y010486D02*
X021510Y010486D01*
X021510Y009697D01*
X021350Y009697D01*
X021350Y010486D01*
X021072Y010486D01*
X021026Y010474D01*
X020985Y010450D01*
X020951Y010417D01*
X020928Y010375D01*
X020925Y010364D01*
X020925Y010372D01*
X020831Y010466D01*
X020029Y010466D01*
X019935Y010372D01*
X019935Y008862D01*
X020029Y008768D01*
X020190Y008768D01*
X020190Y007669D01*
X020143Y007622D01*
X020092Y007497D01*
X020092Y007363D01*
X020143Y007238D01*
X020218Y007163D01*
X019398Y007163D01*
X019343Y007108D01*
X019288Y007163D01*
X018414Y007163D01*
X018353Y007101D01*
X018353Y006227D01*
X018414Y006166D01*
X019288Y006166D01*
X019343Y006220D01*
X019398Y006166D01*
X020273Y006166D01*
X020328Y006220D01*
X020383Y006166D01*
X021257Y006166D01*
X021318Y006227D01*
X021318Y007101D01*
X021257Y007163D01*
X020642Y007163D01*
X020717Y007238D01*
X020768Y007363D01*
X020768Y007497D01*
X020717Y007622D01*
X020670Y007669D01*
X020670Y008768D01*
X020831Y008768D01*
X020925Y008862D01*
X020925Y008870D01*
X020928Y008859D01*
X020951Y008818D01*
X020985Y008784D01*
X021026Y008760D01*
X021072Y008748D01*
X021350Y008748D01*
X021350Y009537D01*
X021510Y009537D01*
X021510Y008748D01*
X021788Y008748D01*
X021834Y008760D01*
X021875Y008784D01*
X021909Y008818D01*
X021932Y008859D01*
X021935Y008870D01*
X021935Y008862D01*
X022029Y008768D01*
X022190Y008768D01*
X022190Y008169D01*
X022143Y008122D01*
X022092Y007997D01*
X022092Y007863D01*
X022143Y007738D01*
X022238Y007643D01*
X022363Y007592D01*
X022497Y007592D01*
X022622Y007643D01*
X022717Y007738D01*
X022768Y007863D01*
X022768Y007997D01*
X022717Y008122D01*
X022670Y008169D01*
X022670Y008768D01*
X022831Y008768D01*
X022925Y008862D01*
X022925Y010372D01*
X022831Y010466D01*
X022029Y010466D01*
X021935Y010372D01*
X021935Y010364D01*
X021932Y010375D01*
X021909Y010417D01*
X021875Y010450D01*
X021834Y010474D01*
X021788Y010486D01*
X021510Y010483D02*
X021350Y010483D01*
X021059Y010483D02*
X016801Y010483D01*
X019430Y009617D02*
X019430Y008680D01*
X017680Y006930D01*
X018008Y006837D02*
X018353Y006837D01*
X018353Y006996D02*
X018085Y006996D01*
X018243Y007154D02*
X018405Y007154D01*
X018402Y007313D02*
X020112Y007313D01*
X020092Y007471D02*
X018560Y007471D01*
X018719Y007630D02*
X020151Y007630D01*
X020190Y007788D02*
X018877Y007788D01*
X019036Y007947D02*
X020190Y007947D01*
X020190Y008105D02*
X019194Y008105D01*
X019353Y008264D02*
X020190Y008264D01*
X020190Y008422D02*
X019511Y008422D01*
X019649Y008581D02*
X020190Y008581D01*
X020190Y008739D02*
X019670Y008739D01*
X019925Y008898D02*
X019935Y008898D01*
X019925Y009056D02*
X019935Y009056D01*
X019925Y009215D02*
X019935Y009215D01*
X019925Y009373D02*
X019935Y009373D01*
X019925Y009532D02*
X019935Y009532D01*
X019925Y009690D02*
X019935Y009690D01*
X019925Y009849D02*
X019935Y009849D01*
X019925Y010007D02*
X019935Y010007D01*
X019925Y010166D02*
X019935Y010166D01*
X019925Y010324D02*
X019935Y010324D01*
X021350Y010324D02*
X021510Y010324D01*
X021510Y010166D02*
X021350Y010166D01*
X021350Y010007D02*
X021510Y010007D01*
X021510Y009849D02*
X021350Y009849D01*
X021350Y009532D02*
X021510Y009532D01*
X021510Y009373D02*
X021350Y009373D01*
X021350Y009215D02*
X021510Y009215D01*
X021510Y009056D02*
X021350Y009056D01*
X021350Y008898D02*
X021510Y008898D01*
X022190Y008739D02*
X020670Y008739D01*
X020670Y008581D02*
X022190Y008581D01*
X022190Y008422D02*
X020670Y008422D01*
X020670Y008264D02*
X022190Y008264D01*
X022136Y008105D02*
X020670Y008105D01*
X020670Y007947D02*
X022092Y007947D01*
X022123Y007788D02*
X020670Y007788D01*
X020709Y007630D02*
X022271Y007630D01*
X022589Y007630D02*
X024192Y007630D01*
X024192Y007788D02*
X022737Y007788D01*
X022768Y007947D02*
X024192Y007947D01*
X024192Y008105D02*
X023530Y008105D01*
X023497Y008092D02*
X023622Y008143D01*
X023717Y008238D01*
X023768Y008363D01*
X023768Y008497D01*
X023717Y008622D01*
X023670Y008669D01*
X023670Y008768D01*
X023831Y008768D01*
X023925Y008862D01*
X023925Y010372D01*
X023831Y010466D01*
X023029Y010466D01*
X022935Y010372D01*
X022935Y008862D01*
X023029Y008768D01*
X023190Y008768D01*
X023190Y008669D01*
X023143Y008622D01*
X023092Y008497D01*
X023092Y008363D01*
X023143Y008238D01*
X023238Y008143D01*
X023363Y008092D01*
X023497Y008092D01*
X023330Y008105D02*
X022724Y008105D01*
X022670Y008264D02*
X023133Y008264D01*
X023092Y008422D02*
X022670Y008422D01*
X022670Y008581D02*
X023126Y008581D01*
X023190Y008739D02*
X022670Y008739D01*
X022925Y008898D02*
X022935Y008898D01*
X022925Y009056D02*
X022935Y009056D01*
X022925Y009215D02*
X022935Y009215D01*
X022925Y009373D02*
X022935Y009373D01*
X022925Y009532D02*
X022935Y009532D01*
X022925Y009690D02*
X022935Y009690D01*
X022925Y009849D02*
X022935Y009849D01*
X022925Y010007D02*
X022935Y010007D01*
X022925Y010166D02*
X022935Y010166D01*
X022925Y010324D02*
X022935Y010324D01*
X023925Y010324D02*
X024192Y010324D01*
X024192Y010166D02*
X023925Y010166D01*
X023925Y010007D02*
X024192Y010007D01*
X024192Y009849D02*
X023925Y009849D01*
X023925Y009690D02*
X024192Y009690D01*
X024192Y009532D02*
X023925Y009532D01*
X023925Y009373D02*
X024192Y009373D01*
X024192Y009215D02*
X023925Y009215D01*
X023925Y009056D02*
X024192Y009056D01*
X024192Y008898D02*
X023925Y008898D01*
X023670Y008739D02*
X024192Y008739D01*
X024192Y008581D02*
X023734Y008581D01*
X023768Y008422D02*
X024192Y008422D01*
X024192Y008264D02*
X023727Y008264D01*
X023430Y008430D02*
X023430Y009617D01*
X022430Y009617D02*
X022430Y007930D01*
X022932Y007471D02*
X020768Y007471D01*
X020748Y007313D02*
X021796Y007313D01*
X021609Y007154D02*
X021266Y007154D01*
X021318Y006996D02*
X021496Y006996D01*
X021431Y006837D02*
X021318Y006837D01*
X021318Y006679D02*
X021411Y006679D01*
X021411Y006520D02*
X021318Y006520D01*
X021318Y006362D02*
X021460Y006362D01*
X021526Y006203D02*
X021294Y006203D01*
X021680Y006045D02*
X017420Y006045D01*
X017420Y006203D02*
X018377Y006203D01*
X018353Y006362D02*
X017420Y006362D01*
X017420Y006520D02*
X018353Y006520D01*
X018353Y006679D02*
X017907Y006679D01*
X017453Y006679D02*
X017420Y006679D01*
X016940Y006679D02*
X004966Y006679D01*
X004966Y006520D02*
X016940Y006520D01*
X016940Y006362D02*
X004966Y006362D01*
X004890Y006203D02*
X016940Y006203D01*
X016940Y006045D02*
X004966Y006045D01*
X004966Y006081D02*
X004872Y006175D01*
X003362Y006175D01*
X003268Y006081D01*
X003268Y005279D01*
X003362Y005185D01*
X004872Y005185D01*
X004966Y005279D01*
X004966Y006081D01*
X004966Y005886D02*
X016940Y005886D01*
X016940Y005728D02*
X004966Y005728D01*
X004966Y005569D02*
X016940Y005569D01*
X016940Y005411D02*
X004966Y005411D01*
X004939Y005252D02*
X016940Y005252D01*
X016940Y005094D02*
X004953Y005094D01*
X004966Y005081D02*
X004872Y005175D01*
X003362Y005175D01*
X003268Y005081D01*
X003268Y004279D01*
X003362Y004185D01*
X004872Y004185D01*
X004966Y004279D01*
X004966Y005081D01*
X004966Y004935D02*
X016940Y004935D01*
X016940Y004777D02*
X004966Y004777D01*
X004966Y004618D02*
X016940Y004618D01*
X016940Y004460D02*
X004966Y004460D01*
X004966Y004301D02*
X016940Y004301D01*
X016940Y004143D02*
X003170Y004143D01*
X003170Y004301D02*
X003268Y004301D01*
X003268Y004460D02*
X003170Y004460D01*
X003170Y004618D02*
X003268Y004618D01*
X003268Y004777D02*
X003170Y004777D01*
X003170Y004935D02*
X003268Y004935D01*
X003281Y005094D02*
X003170Y005094D01*
X003170Y005252D02*
X003295Y005252D01*
X003268Y005411D02*
X003170Y005411D01*
X003170Y005569D02*
X003268Y005569D01*
X003268Y005728D02*
X003170Y005728D01*
X003170Y005886D02*
X003268Y005886D01*
X003268Y006045D02*
X003170Y006045D01*
X003170Y006203D02*
X003344Y006203D01*
X003268Y006362D02*
X003170Y006362D01*
X003170Y006520D02*
X003268Y006520D01*
X003268Y006679D02*
X003170Y006679D01*
X001872Y006837D02*
X001488Y006837D01*
X001640Y006996D02*
X001720Y006996D01*
X001720Y007154D02*
X001640Y007154D01*
X001640Y007313D02*
X001720Y007313D01*
X001820Y007471D02*
X001540Y007471D01*
X001491Y006520D02*
X001869Y006520D01*
X001720Y006362D02*
X001640Y006362D01*
X001640Y006203D02*
X001720Y006203D01*
X001720Y006045D02*
X001640Y006045D01*
X001537Y005886D02*
X001823Y005886D01*
X001982Y005728D02*
X001378Y005728D01*
X001371Y005640D02*
X000989Y005640D01*
X000720Y005371D01*
X000720Y004989D01*
X000989Y004720D01*
X001371Y004720D01*
X001640Y004989D01*
X001640Y005371D01*
X001371Y005640D01*
X001442Y005569D02*
X001918Y005569D01*
X001760Y005411D02*
X001600Y005411D01*
X001640Y005252D02*
X001720Y005252D01*
X001720Y005094D02*
X001640Y005094D01*
X001586Y004935D02*
X001774Y004935D01*
X001933Y004777D02*
X001427Y004777D01*
X001371Y004640D02*
X000989Y004640D01*
X000720Y004371D01*
X000720Y003989D01*
X000989Y003720D01*
X001371Y003720D01*
X001640Y003989D01*
X001640Y004371D01*
X001371Y004640D01*
X001393Y004618D02*
X001967Y004618D01*
X001809Y004460D02*
X001551Y004460D01*
X001640Y004301D02*
X001720Y004301D01*
X001720Y004143D02*
X001640Y004143D01*
X001635Y003984D02*
X001645Y003984D01*
X001486Y003826D02*
X001476Y003826D01*
X001440Y003667D02*
X000660Y003667D01*
X000660Y003826D02*
X000884Y003826D01*
X000725Y003984D02*
X000660Y003984D01*
X000660Y004143D02*
X000720Y004143D01*
X000720Y004301D02*
X000660Y004301D01*
X000660Y004460D02*
X000809Y004460D01*
X000660Y004618D02*
X000967Y004618D01*
X000933Y004777D02*
X000660Y004777D01*
X000660Y004935D02*
X000774Y004935D01*
X000720Y005094D02*
X000660Y005094D01*
X000660Y005252D02*
X000720Y005252D01*
X000760Y005411D02*
X000660Y005411D01*
X000660Y005569D02*
X000918Y005569D01*
X000982Y005728D02*
X000660Y005728D01*
X000660Y005886D02*
X000823Y005886D01*
X000720Y006045D02*
X000660Y006045D01*
X000660Y006203D02*
X000720Y006203D01*
X000720Y006362D02*
X000660Y006362D01*
X004893Y007154D02*
X016940Y007154D01*
X016940Y006996D02*
X004966Y006996D01*
X004966Y006837D02*
X016940Y006837D01*
X017180Y007180D02*
X018430Y008430D01*
X018603Y008264D02*
X018674Y008264D01*
X018516Y008105D02*
X018444Y008105D01*
X018357Y007947D02*
X018286Y007947D01*
X018199Y007788D02*
X018127Y007788D01*
X018040Y007630D02*
X017969Y007630D01*
X017882Y007471D02*
X017810Y007471D01*
X017723Y007313D02*
X017652Y007313D01*
X017180Y007180D02*
X017180Y002930D01*
X017504Y003033D02*
X022190Y003033D01*
X022190Y003164D02*
X022190Y002592D01*
X022029Y002592D01*
X021935Y002498D01*
X021935Y002490D01*
X021932Y002501D01*
X021909Y002542D01*
X021875Y002576D01*
X021834Y002600D01*
X021788Y002612D01*
X021510Y002612D01*
X021510Y001823D01*
X021350Y001823D01*
X021350Y002612D01*
X021072Y002612D01*
X021026Y002600D01*
X020985Y002576D01*
X020951Y002542D01*
X020928Y002501D01*
X020925Y002490D01*
X020925Y002498D01*
X020831Y002592D01*
X020029Y002592D01*
X019935Y002498D01*
X019935Y000988D01*
X020029Y000894D01*
X020831Y000894D01*
X020925Y000988D01*
X020925Y000996D01*
X020928Y000985D01*
X020951Y000943D01*
X020985Y000910D01*
X021026Y000886D01*
X021072Y000874D01*
X021350Y000874D01*
X021350Y001663D01*
X021510Y001663D01*
X021510Y000874D01*
X021788Y000874D01*
X021834Y000886D01*
X021875Y000910D01*
X021909Y000943D01*
X021932Y000985D01*
X021935Y000996D01*
X021935Y000988D01*
X022029Y000894D01*
X022831Y000894D01*
X022925Y000988D01*
X022925Y002498D01*
X022831Y002592D01*
X022670Y002592D01*
X022670Y003164D01*
X022788Y003282D01*
X022788Y003578D01*
X022578Y003788D01*
X022282Y003788D01*
X022072Y003578D01*
X022072Y003282D01*
X022190Y003164D01*
X022162Y003192D02*
X017420Y003192D01*
X017420Y003350D02*
X022072Y003350D01*
X022072Y003509D02*
X017420Y003509D01*
X017420Y003667D02*
X022161Y003667D01*
X022430Y003430D02*
X022430Y001743D01*
X022925Y001765D02*
X022935Y001765D01*
X022925Y001607D02*
X022935Y001607D01*
X022925Y001448D02*
X022935Y001448D01*
X022925Y001290D02*
X022935Y001290D01*
X022925Y001131D02*
X022935Y001131D01*
X022935Y000988D02*
X023029Y000894D01*
X023831Y000894D01*
X023925Y000988D01*
X023925Y002498D01*
X023831Y002592D01*
X023029Y002592D01*
X022935Y002498D01*
X022935Y000988D01*
X022951Y000973D02*
X022909Y000973D01*
X021951Y000973D02*
X021925Y000973D01*
X021510Y000973D02*
X021350Y000973D01*
X021350Y001131D02*
X021510Y001131D01*
X021510Y001290D02*
X021350Y001290D01*
X021350Y001448D02*
X021510Y001448D01*
X021510Y001607D02*
X021350Y001607D01*
X021350Y001924D02*
X021510Y001924D01*
X021510Y002082D02*
X021350Y002082D01*
X021350Y002241D02*
X021510Y002241D01*
X021510Y002399D02*
X021350Y002399D01*
X021350Y002558D02*
X021510Y002558D01*
X021894Y002558D02*
X021995Y002558D01*
X022190Y002716D02*
X017445Y002716D01*
X017865Y002558D02*
X017995Y002558D01*
X018029Y002592D02*
X017935Y002498D01*
X017935Y000988D01*
X018029Y000894D01*
X018831Y000894D01*
X018925Y000988D01*
X018925Y002498D01*
X018831Y002592D01*
X018029Y002592D01*
X017935Y002399D02*
X017925Y002399D01*
X017925Y002241D02*
X017935Y002241D01*
X017925Y002082D02*
X017935Y002082D01*
X017925Y001924D02*
X017935Y001924D01*
X017925Y001765D02*
X017935Y001765D01*
X017925Y001607D02*
X017935Y001607D01*
X017925Y001448D02*
X017935Y001448D01*
X017925Y001290D02*
X017935Y001290D01*
X017925Y001131D02*
X017935Y001131D01*
X017951Y000973D02*
X017909Y000973D01*
X016951Y000973D02*
X016925Y000973D01*
X016510Y000973D02*
X016350Y000973D01*
X016350Y001131D02*
X016510Y001131D01*
X016510Y001290D02*
X016350Y001290D01*
X016350Y001448D02*
X016510Y001448D01*
X016510Y001607D02*
X016350Y001607D01*
X016350Y001924D02*
X016510Y001924D01*
X016510Y002082D02*
X016350Y002082D01*
X016350Y002241D02*
X016510Y002241D01*
X016510Y002399D02*
X016350Y002399D01*
X016350Y002558D02*
X016510Y002558D01*
X016894Y002558D02*
X016995Y002558D01*
X016915Y002716D02*
X003170Y002716D01*
X003170Y002558D02*
X003995Y002558D01*
X004029Y002592D02*
X003935Y002498D01*
X003935Y000988D01*
X004029Y000894D01*
X004831Y000894D01*
X004925Y000988D01*
X004925Y002498D01*
X004831Y002592D01*
X004029Y002592D01*
X003935Y002399D02*
X003170Y002399D01*
X003170Y002241D02*
X003935Y002241D01*
X003935Y002082D02*
X003170Y002082D01*
X003170Y001924D02*
X003935Y001924D01*
X003935Y001765D02*
X003170Y001765D01*
X003170Y001607D02*
X003935Y001607D01*
X003935Y001448D02*
X003170Y001448D01*
X003129Y001290D02*
X003935Y001290D01*
X003935Y001131D02*
X002970Y001131D01*
X002806Y000973D02*
X003951Y000973D01*
X004909Y000973D02*
X004951Y000973D01*
X004935Y000988D02*
X005029Y000894D01*
X005831Y000894D01*
X005925Y000988D01*
X005925Y000996D01*
X005928Y000985D01*
X005951Y000943D01*
X005985Y000910D01*
X006026Y000886D01*
X006072Y000874D01*
X006350Y000874D01*
X006350Y001663D01*
X006510Y001663D01*
X006510Y000874D01*
X006788Y000874D01*
X006834Y000886D01*
X006875Y000910D01*
X006909Y000943D01*
X006932Y000985D01*
X006935Y000996D01*
X006935Y000988D01*
X007029Y000894D01*
X007831Y000894D01*
X007925Y000988D01*
X007925Y002498D01*
X007831Y002592D01*
X007029Y002592D01*
X006935Y002498D01*
X006935Y002490D01*
X006932Y002501D01*
X006909Y002542D01*
X006875Y002576D01*
X006834Y002600D01*
X006788Y002612D01*
X006510Y002612D01*
X006510Y001823D01*
X006350Y001823D01*
X006350Y002612D01*
X006072Y002612D01*
X006026Y002600D01*
X005985Y002576D01*
X005951Y002542D01*
X005928Y002501D01*
X005925Y002490D01*
X005925Y002498D01*
X005831Y002592D01*
X005029Y002592D01*
X004935Y002498D01*
X004935Y000988D01*
X004925Y001131D02*
X004935Y001131D01*
X004925Y001290D02*
X004935Y001290D01*
X004925Y001448D02*
X004935Y001448D01*
X004925Y001607D02*
X004935Y001607D01*
X004925Y001765D02*
X004935Y001765D01*
X004925Y001924D02*
X004935Y001924D01*
X004925Y002082D02*
X004935Y002082D01*
X004925Y002241D02*
X004935Y002241D01*
X004925Y002399D02*
X004935Y002399D01*
X004995Y002558D02*
X004865Y002558D01*
X005865Y002558D02*
X005966Y002558D01*
X006350Y002558D02*
X006510Y002558D01*
X006510Y002399D02*
X006350Y002399D01*
X006350Y002241D02*
X006510Y002241D01*
X006510Y002082D02*
X006350Y002082D01*
X006350Y001924D02*
X006510Y001924D01*
X006510Y001607D02*
X006350Y001607D01*
X006350Y001448D02*
X006510Y001448D01*
X006510Y001290D02*
X006350Y001290D01*
X006350Y001131D02*
X006510Y001131D01*
X006510Y000973D02*
X006350Y000973D01*
X005935Y000973D02*
X005909Y000973D01*
X006925Y000973D02*
X006951Y000973D01*
X007909Y000973D02*
X007951Y000973D01*
X007935Y000988D02*
X008029Y000894D01*
X008831Y000894D01*
X008925Y000988D01*
X008925Y002498D01*
X008831Y002592D01*
X008029Y002592D01*
X007935Y002498D01*
X007935Y000988D01*
X007925Y001131D02*
X007935Y001131D01*
X007925Y001290D02*
X007935Y001290D01*
X007925Y001448D02*
X007935Y001448D01*
X007925Y001607D02*
X007935Y001607D01*
X007925Y001765D02*
X007935Y001765D01*
X007925Y001924D02*
X007935Y001924D01*
X007925Y002082D02*
X007935Y002082D01*
X007925Y002241D02*
X007935Y002241D01*
X007925Y002399D02*
X007935Y002399D01*
X007995Y002558D02*
X007865Y002558D01*
X006995Y002558D02*
X006894Y002558D01*
X008865Y002558D02*
X008995Y002558D01*
X009029Y002592D02*
X008935Y002498D01*
X008935Y000988D01*
X009029Y000894D01*
X009831Y000894D01*
X009925Y000988D01*
X009925Y002498D01*
X009831Y002592D01*
X009029Y002592D01*
X008935Y002399D02*
X008925Y002399D01*
X008925Y002241D02*
X008935Y002241D01*
X008925Y002082D02*
X008935Y002082D01*
X008925Y001924D02*
X008935Y001924D01*
X008925Y001765D02*
X008935Y001765D01*
X008925Y001607D02*
X008935Y001607D01*
X008925Y001448D02*
X008935Y001448D01*
X008925Y001290D02*
X008935Y001290D01*
X008925Y001131D02*
X008935Y001131D01*
X008951Y000973D02*
X008909Y000973D01*
X009909Y000973D02*
X009951Y000973D01*
X009935Y000988D02*
X010029Y000894D01*
X010831Y000894D01*
X010925Y000988D01*
X010925Y000996D01*
X010928Y000985D01*
X010951Y000943D01*
X010985Y000910D01*
X011026Y000886D01*
X011072Y000874D01*
X011350Y000874D01*
X011350Y001663D01*
X011510Y001663D01*
X011510Y000874D01*
X011788Y000874D01*
X011834Y000886D01*
X011875Y000910D01*
X011909Y000943D01*
X011932Y000985D01*
X011935Y000996D01*
X011935Y000988D01*
X012029Y000894D01*
X012831Y000894D01*
X012925Y000988D01*
X012925Y002498D01*
X012831Y002592D01*
X012029Y002592D01*
X011935Y002498D01*
X011935Y002490D01*
X011932Y002501D01*
X011909Y002542D01*
X011875Y002576D01*
X011834Y002600D01*
X011788Y002612D01*
X011510Y002612D01*
X011510Y001823D01*
X011350Y001823D01*
X011350Y002612D01*
X011072Y002612D01*
X011026Y002600D01*
X010985Y002576D01*
X010951Y002542D01*
X010928Y002501D01*
X010925Y002490D01*
X010925Y002498D01*
X010831Y002592D01*
X010029Y002592D01*
X009935Y002498D01*
X009935Y000988D01*
X009925Y001131D02*
X009935Y001131D01*
X009925Y001290D02*
X009935Y001290D01*
X009925Y001448D02*
X009935Y001448D01*
X009925Y001607D02*
X009935Y001607D01*
X009925Y001765D02*
X009935Y001765D01*
X009925Y001924D02*
X009935Y001924D01*
X009925Y002082D02*
X009935Y002082D01*
X009925Y002241D02*
X009935Y002241D01*
X009925Y002399D02*
X009935Y002399D01*
X009995Y002558D02*
X009865Y002558D01*
X010865Y002558D02*
X010966Y002558D01*
X011350Y002558D02*
X011510Y002558D01*
X011510Y002399D02*
X011350Y002399D01*
X011350Y002241D02*
X011510Y002241D01*
X011510Y002082D02*
X011350Y002082D01*
X011350Y001924D02*
X011510Y001924D01*
X011510Y001607D02*
X011350Y001607D01*
X011350Y001448D02*
X011510Y001448D01*
X011510Y001290D02*
X011350Y001290D01*
X011350Y001131D02*
X011510Y001131D01*
X011510Y000973D02*
X011350Y000973D01*
X010935Y000973D02*
X010909Y000973D01*
X011925Y000973D02*
X011951Y000973D01*
X012909Y000973D02*
X012951Y000973D01*
X012935Y000988D02*
X013029Y000894D01*
X013831Y000894D01*
X013925Y000988D01*
X013925Y002498D01*
X013831Y002592D01*
X013029Y002592D01*
X012935Y002498D01*
X012935Y000988D01*
X012925Y001131D02*
X012935Y001131D01*
X012925Y001290D02*
X012935Y001290D01*
X012925Y001448D02*
X012935Y001448D01*
X012925Y001607D02*
X012935Y001607D01*
X012925Y001765D02*
X012935Y001765D01*
X012925Y001924D02*
X012935Y001924D01*
X012925Y002082D02*
X012935Y002082D01*
X012925Y002241D02*
X012935Y002241D01*
X012925Y002399D02*
X012935Y002399D01*
X012995Y002558D02*
X012865Y002558D01*
X011995Y002558D02*
X011894Y002558D01*
X013865Y002558D02*
X013995Y002558D01*
X014029Y002592D02*
X013935Y002498D01*
X013935Y000988D01*
X014029Y000894D01*
X014831Y000894D01*
X014925Y000988D01*
X014925Y002498D01*
X014831Y002592D01*
X014029Y002592D01*
X013935Y002399D02*
X013925Y002399D01*
X013925Y002241D02*
X013935Y002241D01*
X013925Y002082D02*
X013935Y002082D01*
X013925Y001924D02*
X013935Y001924D01*
X013925Y001765D02*
X013935Y001765D01*
X013925Y001607D02*
X013935Y001607D01*
X013925Y001448D02*
X013935Y001448D01*
X013925Y001290D02*
X013935Y001290D01*
X013925Y001131D02*
X013935Y001131D01*
X013951Y000973D02*
X013909Y000973D01*
X014909Y000973D02*
X014951Y000973D01*
X014935Y001131D02*
X014925Y001131D01*
X014925Y001290D02*
X014935Y001290D01*
X014925Y001448D02*
X014935Y001448D01*
X014925Y001607D02*
X014935Y001607D01*
X014925Y001765D02*
X014935Y001765D01*
X014925Y001924D02*
X014935Y001924D01*
X014925Y002082D02*
X014935Y002082D01*
X014925Y002241D02*
X014935Y002241D01*
X014925Y002399D02*
X014935Y002399D01*
X014995Y002558D02*
X014865Y002558D01*
X015865Y002558D02*
X015966Y002558D01*
X016842Y002875D02*
X003170Y002875D01*
X003170Y003033D02*
X016856Y003033D01*
X016940Y003192D02*
X003170Y003192D01*
X003170Y003350D02*
X016940Y003350D01*
X016940Y003509D02*
X003170Y003509D01*
X003170Y003667D02*
X016940Y003667D01*
X016940Y003826D02*
X003170Y003826D01*
X003170Y003984D02*
X016940Y003984D01*
X017420Y003984D02*
X021950Y003984D01*
X021672Y004143D02*
X017420Y004143D01*
X017420Y004301D02*
X021522Y004301D01*
X021457Y004460D02*
X017420Y004460D01*
X017420Y004618D02*
X021411Y004618D01*
X021411Y004777D02*
X017420Y004777D01*
X017420Y004935D02*
X021434Y004935D01*
X021499Y005094D02*
X017420Y005094D01*
X017420Y005252D02*
X021616Y005252D01*
X021778Y005411D02*
X017420Y005411D01*
X017420Y005569D02*
X021778Y005569D01*
X021778Y005728D02*
X017420Y005728D01*
X017420Y005886D02*
X021778Y005886D01*
X020345Y006203D02*
X020310Y006203D01*
X019361Y006203D02*
X019326Y006203D01*
X019297Y007154D02*
X019389Y007154D01*
X020430Y007430D02*
X020430Y009617D01*
X017607Y007947D02*
X017243Y007947D01*
X012935Y008898D02*
X012925Y008898D01*
X012925Y009056D02*
X012935Y009056D01*
X012925Y009215D02*
X012935Y009215D01*
X012925Y009373D02*
X012935Y009373D01*
X012925Y009532D02*
X012935Y009532D01*
X012925Y009690D02*
X012935Y009690D01*
X012925Y009849D02*
X012935Y009849D01*
X012925Y010007D02*
X012935Y010007D01*
X012925Y010166D02*
X012935Y010166D01*
X012925Y010324D02*
X012935Y010324D01*
X011510Y010324D02*
X011350Y010324D01*
X011350Y010166D02*
X011510Y010166D01*
X011510Y010007D02*
X011350Y010007D01*
X011350Y009849D02*
X011510Y009849D01*
X011510Y009532D02*
X011350Y009532D01*
X011350Y009373D02*
X011510Y009373D01*
X011510Y009215D02*
X011350Y009215D01*
X011350Y009056D02*
X011510Y009056D01*
X011510Y008898D02*
X011350Y008898D01*
X009935Y008898D02*
X009925Y008898D01*
X009925Y008862D02*
X009925Y010372D01*
X009831Y010466D01*
X009029Y010466D01*
X008935Y010372D01*
X008935Y008862D01*
X009029Y008768D01*
X009831Y008768D01*
X009925Y008862D01*
X009925Y009056D02*
X009935Y009056D01*
X009925Y009215D02*
X009935Y009215D01*
X009925Y009373D02*
X009935Y009373D01*
X009925Y009532D02*
X009935Y009532D01*
X009925Y009690D02*
X009935Y009690D01*
X009925Y009849D02*
X009935Y009849D01*
X009925Y010007D02*
X009935Y010007D01*
X009925Y010166D02*
X009935Y010166D01*
X009925Y010324D02*
X009935Y010324D01*
X008935Y010324D02*
X008925Y010324D01*
X008925Y010372D02*
X008831Y010466D01*
X008029Y010466D01*
X007935Y010372D01*
X007935Y008862D01*
X008029Y008768D01*
X008831Y008768D01*
X008925Y008862D01*
X008925Y010372D01*
X008925Y010166D02*
X008935Y010166D01*
X008925Y010007D02*
X008935Y010007D01*
X008925Y009849D02*
X008935Y009849D01*
X008925Y009690D02*
X008935Y009690D01*
X008925Y009532D02*
X008935Y009532D01*
X008925Y009373D02*
X008935Y009373D01*
X008925Y009215D02*
X008935Y009215D01*
X008925Y009056D02*
X008935Y009056D01*
X008925Y008898D02*
X008935Y008898D01*
X007935Y008898D02*
X007925Y008898D01*
X007925Y009056D02*
X007935Y009056D01*
X007925Y009215D02*
X007935Y009215D01*
X007925Y009373D02*
X007935Y009373D01*
X007925Y009532D02*
X007935Y009532D01*
X007925Y009690D02*
X007935Y009690D01*
X007925Y009849D02*
X007935Y009849D01*
X007925Y010007D02*
X007935Y010007D01*
X007925Y010166D02*
X007935Y010166D01*
X007925Y010324D02*
X007935Y010324D01*
X006510Y010324D02*
X006350Y010324D01*
X006350Y010166D02*
X006510Y010166D01*
X006510Y010007D02*
X006350Y010007D01*
X006350Y009849D02*
X006510Y009849D01*
X006510Y009532D02*
X006350Y009532D01*
X006350Y009373D02*
X006510Y009373D01*
X006510Y009215D02*
X006350Y009215D01*
X006350Y009056D02*
X006510Y009056D01*
X006510Y008898D02*
X006350Y008898D01*
X004935Y008898D02*
X004925Y008898D01*
X004925Y009056D02*
X004935Y009056D01*
X004925Y009215D02*
X004935Y009215D01*
X004925Y009373D02*
X004935Y009373D01*
X004925Y009532D02*
X004935Y009532D01*
X004925Y009690D02*
X004935Y009690D01*
X004925Y009849D02*
X004935Y009849D01*
X004925Y010007D02*
X004935Y010007D01*
X004925Y010166D02*
X004935Y010166D01*
X004925Y010324D02*
X004935Y010324D01*
X002690Y003984D02*
X002635Y003984D01*
X002690Y003826D02*
X002476Y003826D01*
X002690Y003667D02*
X002006Y003667D01*
X002502Y003509D02*
X002690Y003509D01*
X002690Y003350D02*
X002640Y003350D01*
X002640Y003192D02*
X002690Y003192D01*
X002690Y003033D02*
X002640Y003033D01*
X002690Y002875D02*
X002525Y002875D01*
X001680Y002680D02*
X001380Y002380D01*
X001380Y001180D01*
X000990Y001131D02*
X000660Y001131D01*
X000660Y000973D02*
X000990Y000973D01*
X000990Y000814D02*
X000660Y000814D01*
X000660Y001290D02*
X000990Y001290D01*
X000990Y001448D02*
X000660Y001448D01*
X000660Y001607D02*
X001035Y001607D01*
X001140Y001765D02*
X000660Y001765D01*
X000660Y001924D02*
X001140Y001924D01*
X001140Y002082D02*
X000660Y002082D01*
X000660Y002241D02*
X001140Y002241D01*
X001140Y002399D02*
X000660Y002399D01*
X000660Y002558D02*
X001218Y002558D01*
X001200Y002716D02*
X001160Y002716D01*
X000965Y002716D02*
X000660Y002716D01*
X000660Y002875D02*
X000807Y002875D01*
X000700Y003033D02*
X000660Y003033D01*
X000660Y003192D02*
X001160Y003192D01*
X001160Y003350D02*
X001200Y003350D01*
X001200Y003509D02*
X001160Y003509D01*
X000830Y003509D02*
X000660Y003509D01*
X000660Y003350D02*
X000700Y003350D01*
X001160Y003033D02*
X001200Y003033D01*
X001200Y002875D02*
X001160Y002875D01*
X002370Y000814D02*
X024192Y000814D01*
X024192Y000973D02*
X023909Y000973D01*
X023925Y001131D02*
X024192Y001131D01*
X024192Y001290D02*
X023925Y001290D01*
X023925Y001448D02*
X024192Y001448D01*
X024192Y001607D02*
X023925Y001607D01*
X023925Y001765D02*
X024192Y001765D01*
X024192Y001924D02*
X023925Y001924D01*
X023925Y002082D02*
X024192Y002082D01*
X024192Y002241D02*
X023925Y002241D01*
X023925Y002399D02*
X024192Y002399D01*
X024192Y002558D02*
X023865Y002558D01*
X024192Y002716D02*
X022670Y002716D01*
X022865Y002558D02*
X022995Y002558D01*
X022935Y002399D02*
X022925Y002399D01*
X022925Y002241D02*
X022935Y002241D01*
X022925Y002082D02*
X022935Y002082D01*
X022925Y001924D02*
X022935Y001924D01*
X020966Y002558D02*
X020865Y002558D01*
X019995Y002558D02*
X019865Y002558D01*
X019831Y002592D02*
X019925Y002498D01*
X019925Y000988D01*
X019831Y000894D01*
X019029Y000894D01*
X018935Y000988D01*
X018935Y002498D01*
X019029Y002592D01*
X019831Y002592D01*
X019925Y002399D02*
X019935Y002399D01*
X019925Y002241D02*
X019935Y002241D01*
X019925Y002082D02*
X019935Y002082D01*
X019925Y001924D02*
X019935Y001924D01*
X019925Y001765D02*
X019935Y001765D01*
X019925Y001607D02*
X019935Y001607D01*
X019925Y001448D02*
X019935Y001448D01*
X019925Y001290D02*
X019935Y001290D01*
X019925Y001131D02*
X019935Y001131D01*
X019951Y000973D02*
X019909Y000973D01*
X018951Y000973D02*
X018909Y000973D01*
X018925Y001131D02*
X018935Y001131D01*
X018925Y001290D02*
X018935Y001290D01*
X018925Y001448D02*
X018935Y001448D01*
X018925Y001607D02*
X018935Y001607D01*
X018925Y001765D02*
X018935Y001765D01*
X018925Y001924D02*
X018935Y001924D01*
X018925Y002082D02*
X018935Y002082D01*
X018925Y002241D02*
X018935Y002241D01*
X018925Y002399D02*
X018935Y002399D01*
X018995Y002558D02*
X018865Y002558D01*
X017518Y002875D02*
X022190Y002875D01*
X022670Y002875D02*
X024192Y002875D01*
X024192Y003033D02*
X022670Y003033D01*
X022698Y003192D02*
X024192Y003192D01*
X024192Y003350D02*
X022788Y003350D01*
X022788Y003509D02*
X024192Y003509D01*
X024192Y003667D02*
X022699Y003667D01*
X023086Y003826D02*
X017420Y003826D01*
X022422Y003984D02*
X022822Y003984D01*
X023672Y003826D02*
X024192Y003826D01*
X024192Y003984D02*
X023936Y003984D01*
X024089Y004143D02*
X024192Y004143D01*
X024192Y004301D02*
X024155Y004301D01*
X024181Y006996D02*
X024192Y006996D01*
X024192Y007154D02*
X024116Y007154D01*
X024192Y007313D02*
X023999Y007313D01*
X023825Y007471D02*
X024192Y007471D01*
X022759Y007313D02*
X022575Y007313D01*
X020935Y000973D02*
X020909Y000973D01*
X015935Y000973D02*
X015909Y000973D01*
D17*
X022430Y003430D03*
M02*
