G75*
%MOIN*%
%OFA0B0*%
%FSLAX24Y24*%
%IPPOS*%
%LPD*%
%AMOC8*
5,1,8,0,0,1.08239X$1,22.5*
%
%ADD10R,0.0669X0.1378*%
%ADD11R,0.1378X0.0669*%
%ADD12R,0.0460X0.0630*%
D10*
X004430Y001743D03*
X005430Y001743D03*
X006430Y001743D03*
X007430Y001743D03*
X008430Y001743D03*
X009430Y001743D03*
X010430Y001743D03*
X011430Y001743D03*
X012430Y001743D03*
X013430Y001743D03*
X014430Y001743D03*
X015430Y001743D03*
X016430Y001743D03*
X017430Y001743D03*
X018430Y001743D03*
X019430Y001743D03*
X020430Y001743D03*
X021430Y001743D03*
X022430Y001743D03*
X023430Y001743D03*
X023430Y009617D03*
X022430Y009617D03*
X021430Y009617D03*
X020430Y009617D03*
X019430Y009617D03*
X018430Y009617D03*
X017430Y009617D03*
X016430Y009617D03*
X015430Y009617D03*
X014430Y009617D03*
X013430Y009617D03*
X012430Y009617D03*
X011430Y009617D03*
X010430Y009617D03*
X009430Y009617D03*
X008430Y009617D03*
X007430Y009617D03*
X006430Y009617D03*
X005430Y009617D03*
X004430Y009617D03*
D11*
X004117Y006680D03*
X004117Y005680D03*
X004117Y004680D03*
D12*
X001380Y001180D03*
X001980Y001180D03*
M02*
