%
M48
M72
T01C0.0197
T02C0.0236
T03C0.0400
T04C0.0591
T05C0.0709
%
T01
X17180Y2930
X17680Y6930
X20430Y7430
X22430Y7930
X23430Y8430
T02
X22430Y3430
T03
X1180Y3180
X2180Y3180
X2180Y4180
X1180Y4180
X1180Y5180
X2180Y5180
X2180Y6180
X1180Y6180
X1180Y7180
X2180Y7180
X2180Y8180
X1180Y8180
T04
X22186Y6635
X22186Y4725
T05
X23379Y4607
X23379Y6753
M30
