G75*
%MOIN*%
%OFA0B0*%
%FSLAX24Y24*%
%IPPOS*%
%LPD*%
%AMOC8*
5,1,8,0,0,1.08239X$1,22.5*
%
%ADD10C,0.0030*%
%ADD11C,0.0120*%
%ADD12C,0.0060*%
%ADD13C,0.0500*%
%ADD14C,0.0050*%
%ADD15C,0.0040*%
D10*
X000695Y002265D02*
X000888Y002458D01*
X000888Y002507D01*
X000840Y002555D01*
X000743Y002555D01*
X000695Y002507D01*
X000695Y002265D02*
X000888Y002265D01*
X002400Y002265D02*
X002594Y002265D01*
X002497Y002265D02*
X002497Y002555D01*
X002400Y002458D01*
X002945Y002856D02*
X003235Y003049D01*
X003235Y003150D02*
X003235Y003344D01*
X003235Y003445D02*
X002945Y003445D01*
X002945Y003590D01*
X002993Y003638D01*
X003090Y003638D01*
X003138Y003590D01*
X003138Y003445D01*
X003187Y003740D02*
X003235Y003788D01*
X003235Y003885D01*
X003187Y003933D01*
X002993Y003933D02*
X002945Y003885D01*
X002945Y003788D01*
X002993Y003740D01*
X003187Y003740D01*
X003235Y003150D02*
X002945Y003150D01*
X002945Y003049D02*
X003235Y002856D01*
X002617Y009402D02*
X002493Y009402D01*
X002432Y009464D01*
X002309Y009464D02*
X002309Y009402D01*
X002247Y009402D01*
X002247Y009464D01*
X002309Y009464D01*
X002432Y009588D02*
X002555Y009649D01*
X002617Y009649D01*
X002679Y009588D01*
X002679Y009464D01*
X002617Y009402D01*
X002432Y009588D02*
X002432Y009773D01*
X002679Y009773D01*
X002003Y009773D02*
X002003Y009402D01*
X002126Y009402D02*
X001879Y009402D01*
X001758Y009588D02*
X001511Y009588D01*
X001389Y009711D02*
X001389Y009464D01*
X001328Y009402D01*
X001204Y009402D01*
X001143Y009464D01*
X001389Y009711D01*
X001328Y009773D01*
X001204Y009773D01*
X001143Y009711D01*
X001143Y009464D01*
X001020Y009464D02*
X001020Y009402D01*
X000958Y009402D01*
X000958Y009464D01*
X001020Y009464D01*
X000837Y009402D02*
X000590Y009402D01*
X000713Y009402D02*
X000713Y009773D01*
X000590Y009649D01*
X001879Y009649D02*
X002003Y009773D01*
X002327Y010245D02*
X002512Y010245D01*
X002574Y010307D01*
X002574Y010554D01*
X002512Y010615D01*
X002327Y010615D01*
X002327Y010245D01*
X002695Y010307D02*
X002942Y010554D01*
X002942Y010307D01*
X002880Y010245D01*
X002757Y010245D01*
X002695Y010307D01*
X002695Y010554D01*
X002757Y010615D01*
X002880Y010615D01*
X002942Y010554D01*
D11*
X001180Y010430D02*
X000930Y010180D01*
X000680Y009930D02*
X000680Y010430D01*
X001180Y010430D01*
X000930Y010680D01*
D12*
X001130Y000780D02*
X002230Y000780D01*
X002247Y000782D01*
X002264Y000786D01*
X002280Y000793D01*
X002294Y000803D01*
X002307Y000816D01*
X002317Y000830D01*
X002324Y000846D01*
X002328Y000863D01*
X002330Y000880D01*
X002330Y001480D01*
X002328Y001497D01*
X002324Y001514D01*
X002317Y001530D01*
X002307Y001544D01*
X002294Y001557D01*
X002280Y001567D01*
X002264Y001574D01*
X002247Y001578D01*
X002230Y001580D01*
X001130Y001580D01*
X001113Y001578D01*
X001096Y001574D01*
X001080Y001567D01*
X001066Y001557D01*
X001053Y001544D01*
X001043Y001530D01*
X001036Y001514D01*
X001032Y001497D01*
X001030Y001480D01*
X001030Y000880D01*
X001032Y000863D01*
X001036Y000846D01*
X001043Y000830D01*
X001053Y000816D01*
X001066Y000803D01*
X001080Y000793D01*
X001096Y000786D01*
X001113Y000782D01*
X001130Y000780D01*
X003891Y001546D02*
X003891Y004483D01*
X003891Y004877D02*
X003891Y005483D01*
X003891Y005877D02*
X003891Y006483D01*
X003891Y006877D02*
X003891Y009814D01*
X004233Y009814D01*
X004627Y009814D02*
X005233Y009814D01*
X005627Y009814D02*
X006233Y009814D01*
X006627Y009814D02*
X007233Y009814D01*
X007627Y009814D02*
X008233Y009814D01*
X008627Y009814D02*
X009233Y009814D01*
X009627Y009814D02*
X010233Y009814D01*
X010627Y009814D02*
X011233Y009814D01*
X011627Y009814D02*
X012233Y009814D01*
X012627Y009814D02*
X013233Y009814D01*
X013627Y009814D02*
X014233Y009814D01*
X014627Y009814D02*
X015233Y009814D01*
X015627Y009814D02*
X016233Y009814D01*
X016627Y009814D02*
X017233Y009814D01*
X017627Y009814D02*
X018233Y009814D01*
X018627Y009814D02*
X019233Y009814D01*
X019627Y009814D02*
X020233Y009814D01*
X020627Y009814D02*
X021233Y009814D01*
X021627Y009814D02*
X022233Y009814D01*
X022627Y009814D02*
X023233Y009814D01*
X023627Y009814D02*
X023969Y009814D01*
X023969Y001546D01*
X023627Y001546D01*
X023233Y001546D02*
X022627Y001546D01*
X022233Y001546D02*
X021627Y001546D01*
X021233Y001546D02*
X020627Y001546D01*
X020233Y001546D02*
X019627Y001546D01*
X019233Y001546D02*
X018627Y001546D01*
X018233Y001546D02*
X017627Y001546D01*
X017233Y001546D02*
X016627Y001546D01*
X016233Y001546D02*
X015627Y001546D01*
X015233Y001546D02*
X014627Y001546D01*
X014233Y001546D02*
X013627Y001546D01*
X013233Y001546D02*
X012627Y001546D01*
X012233Y001546D02*
X011627Y001546D01*
X011233Y001546D02*
X010627Y001546D01*
X010233Y001546D02*
X009627Y001546D01*
X009233Y001546D02*
X008627Y001546D01*
X008233Y001546D02*
X007627Y001546D01*
X007233Y001546D02*
X006627Y001546D01*
X006233Y001546D02*
X005627Y001546D01*
X005233Y001546D02*
X004627Y001546D01*
X004233Y001546D02*
X003891Y001546D01*
X002680Y002930D02*
X002430Y002680D01*
X000930Y002680D01*
X000680Y002930D01*
X000680Y003430D01*
X000930Y003680D01*
X002430Y003680D01*
X002680Y003930D01*
X002680Y004430D01*
X002430Y004680D01*
X000930Y004680D01*
X000680Y004930D01*
X000680Y005430D01*
X000930Y005680D01*
X002430Y005680D01*
X002680Y005930D01*
X002680Y006430D01*
X002430Y006680D01*
X000930Y006680D01*
X000680Y006930D01*
X000680Y007430D01*
X000930Y007680D01*
X000680Y007930D01*
X000680Y008430D01*
X000930Y008680D01*
X002430Y008680D01*
X002680Y008430D01*
X002680Y007930D01*
X002430Y007680D01*
X000930Y007680D01*
X002430Y007680D02*
X002680Y007430D01*
X002680Y006930D01*
X002430Y006680D01*
X000930Y006680D02*
X000680Y006430D01*
X000680Y005930D01*
X000930Y005680D01*
X002430Y005680D02*
X002680Y005430D01*
X002680Y004930D01*
X002430Y004680D01*
X000930Y004680D02*
X000680Y004430D01*
X000680Y003930D01*
X000930Y003680D01*
X002430Y003680D02*
X002680Y003430D01*
X002680Y002930D01*
D13*
X023930Y010680D03*
D14*
X023627Y009814D02*
X023625Y009787D01*
X023620Y009761D01*
X023611Y009736D01*
X023598Y009712D01*
X023583Y009690D01*
X023564Y009670D01*
X023544Y009653D01*
X023521Y009639D01*
X023496Y009628D01*
X023470Y009621D01*
X023443Y009617D01*
X023417Y009617D01*
X023390Y009621D01*
X023364Y009628D01*
X023339Y009639D01*
X023316Y009653D01*
X023296Y009670D01*
X023277Y009690D01*
X023262Y009712D01*
X023249Y009736D01*
X023240Y009761D01*
X023235Y009787D01*
X023233Y009814D01*
X022627Y009814D02*
X022625Y009787D01*
X022620Y009761D01*
X022611Y009736D01*
X022598Y009712D01*
X022583Y009690D01*
X022564Y009670D01*
X022544Y009653D01*
X022521Y009639D01*
X022496Y009628D01*
X022470Y009621D01*
X022443Y009617D01*
X022417Y009617D01*
X022390Y009621D01*
X022364Y009628D01*
X022339Y009639D01*
X022316Y009653D01*
X022296Y009670D01*
X022277Y009690D01*
X022262Y009712D01*
X022249Y009736D01*
X022240Y009761D01*
X022235Y009787D01*
X022233Y009814D01*
X021627Y009814D02*
X021625Y009787D01*
X021620Y009761D01*
X021611Y009736D01*
X021598Y009712D01*
X021583Y009690D01*
X021564Y009670D01*
X021544Y009653D01*
X021521Y009639D01*
X021496Y009628D01*
X021470Y009621D01*
X021443Y009617D01*
X021417Y009617D01*
X021390Y009621D01*
X021364Y009628D01*
X021339Y009639D01*
X021316Y009653D01*
X021296Y009670D01*
X021277Y009690D01*
X021262Y009712D01*
X021249Y009736D01*
X021240Y009761D01*
X021235Y009787D01*
X021233Y009814D01*
X020627Y009814D02*
X020625Y009787D01*
X020620Y009761D01*
X020611Y009736D01*
X020598Y009712D01*
X020583Y009690D01*
X020564Y009670D01*
X020544Y009653D01*
X020521Y009639D01*
X020496Y009628D01*
X020470Y009621D01*
X020443Y009617D01*
X020417Y009617D01*
X020390Y009621D01*
X020364Y009628D01*
X020339Y009639D01*
X020316Y009653D01*
X020296Y009670D01*
X020277Y009690D01*
X020262Y009712D01*
X020249Y009736D01*
X020240Y009761D01*
X020235Y009787D01*
X020233Y009814D01*
X019627Y009814D02*
X019625Y009787D01*
X019620Y009761D01*
X019611Y009736D01*
X019598Y009712D01*
X019583Y009690D01*
X019564Y009670D01*
X019544Y009653D01*
X019521Y009639D01*
X019496Y009628D01*
X019470Y009621D01*
X019443Y009617D01*
X019417Y009617D01*
X019390Y009621D01*
X019364Y009628D01*
X019339Y009639D01*
X019316Y009653D01*
X019296Y009670D01*
X019277Y009690D01*
X019262Y009712D01*
X019249Y009736D01*
X019240Y009761D01*
X019235Y009787D01*
X019233Y009814D01*
X018627Y009814D02*
X018625Y009787D01*
X018620Y009761D01*
X018611Y009736D01*
X018598Y009712D01*
X018583Y009690D01*
X018564Y009670D01*
X018544Y009653D01*
X018521Y009639D01*
X018496Y009628D01*
X018470Y009621D01*
X018443Y009617D01*
X018417Y009617D01*
X018390Y009621D01*
X018364Y009628D01*
X018339Y009639D01*
X018316Y009653D01*
X018296Y009670D01*
X018277Y009690D01*
X018262Y009712D01*
X018249Y009736D01*
X018240Y009761D01*
X018235Y009787D01*
X018233Y009814D01*
X017627Y009814D02*
X017625Y009787D01*
X017620Y009761D01*
X017611Y009736D01*
X017598Y009712D01*
X017583Y009690D01*
X017564Y009670D01*
X017544Y009653D01*
X017521Y009639D01*
X017496Y009628D01*
X017470Y009621D01*
X017443Y009617D01*
X017417Y009617D01*
X017390Y009621D01*
X017364Y009628D01*
X017339Y009639D01*
X017316Y009653D01*
X017296Y009670D01*
X017277Y009690D01*
X017262Y009712D01*
X017249Y009736D01*
X017240Y009761D01*
X017235Y009787D01*
X017233Y009814D01*
X016627Y009814D02*
X016625Y009787D01*
X016620Y009761D01*
X016611Y009736D01*
X016598Y009712D01*
X016583Y009690D01*
X016564Y009670D01*
X016544Y009653D01*
X016521Y009639D01*
X016496Y009628D01*
X016470Y009621D01*
X016443Y009617D01*
X016417Y009617D01*
X016390Y009621D01*
X016364Y009628D01*
X016339Y009639D01*
X016316Y009653D01*
X016296Y009670D01*
X016277Y009690D01*
X016262Y009712D01*
X016249Y009736D01*
X016240Y009761D01*
X016235Y009787D01*
X016233Y009814D01*
X015627Y009814D02*
X015625Y009787D01*
X015620Y009761D01*
X015611Y009736D01*
X015598Y009712D01*
X015583Y009690D01*
X015564Y009670D01*
X015544Y009653D01*
X015521Y009639D01*
X015496Y009628D01*
X015470Y009621D01*
X015443Y009617D01*
X015417Y009617D01*
X015390Y009621D01*
X015364Y009628D01*
X015339Y009639D01*
X015316Y009653D01*
X015296Y009670D01*
X015277Y009690D01*
X015262Y009712D01*
X015249Y009736D01*
X015240Y009761D01*
X015235Y009787D01*
X015233Y009814D01*
X014627Y009814D02*
X014625Y009787D01*
X014620Y009761D01*
X014611Y009736D01*
X014598Y009712D01*
X014583Y009690D01*
X014564Y009670D01*
X014544Y009653D01*
X014521Y009639D01*
X014496Y009628D01*
X014470Y009621D01*
X014443Y009617D01*
X014417Y009617D01*
X014390Y009621D01*
X014364Y009628D01*
X014339Y009639D01*
X014316Y009653D01*
X014296Y009670D01*
X014277Y009690D01*
X014262Y009712D01*
X014249Y009736D01*
X014240Y009761D01*
X014235Y009787D01*
X014233Y009814D01*
X013627Y009814D02*
X013625Y009787D01*
X013620Y009761D01*
X013611Y009736D01*
X013598Y009712D01*
X013583Y009690D01*
X013564Y009670D01*
X013544Y009653D01*
X013521Y009639D01*
X013496Y009628D01*
X013470Y009621D01*
X013443Y009617D01*
X013417Y009617D01*
X013390Y009621D01*
X013364Y009628D01*
X013339Y009639D01*
X013316Y009653D01*
X013296Y009670D01*
X013277Y009690D01*
X013262Y009712D01*
X013249Y009736D01*
X013240Y009761D01*
X013235Y009787D01*
X013233Y009814D01*
X012627Y009814D02*
X012625Y009787D01*
X012620Y009761D01*
X012611Y009736D01*
X012598Y009712D01*
X012583Y009690D01*
X012564Y009670D01*
X012544Y009653D01*
X012521Y009639D01*
X012496Y009628D01*
X012470Y009621D01*
X012443Y009617D01*
X012417Y009617D01*
X012390Y009621D01*
X012364Y009628D01*
X012339Y009639D01*
X012316Y009653D01*
X012296Y009670D01*
X012277Y009690D01*
X012262Y009712D01*
X012249Y009736D01*
X012240Y009761D01*
X012235Y009787D01*
X012233Y009814D01*
X011627Y009814D02*
X011625Y009787D01*
X011620Y009761D01*
X011611Y009736D01*
X011598Y009712D01*
X011583Y009690D01*
X011564Y009670D01*
X011544Y009653D01*
X011521Y009639D01*
X011496Y009628D01*
X011470Y009621D01*
X011443Y009617D01*
X011417Y009617D01*
X011390Y009621D01*
X011364Y009628D01*
X011339Y009639D01*
X011316Y009653D01*
X011296Y009670D01*
X011277Y009690D01*
X011262Y009712D01*
X011249Y009736D01*
X011240Y009761D01*
X011235Y009787D01*
X011233Y009814D01*
X010627Y009814D02*
X010625Y009787D01*
X010620Y009761D01*
X010611Y009736D01*
X010598Y009712D01*
X010583Y009690D01*
X010564Y009670D01*
X010544Y009653D01*
X010521Y009639D01*
X010496Y009628D01*
X010470Y009621D01*
X010443Y009617D01*
X010417Y009617D01*
X010390Y009621D01*
X010364Y009628D01*
X010339Y009639D01*
X010316Y009653D01*
X010296Y009670D01*
X010277Y009690D01*
X010262Y009712D01*
X010249Y009736D01*
X010240Y009761D01*
X010235Y009787D01*
X010233Y009814D01*
X009627Y009814D02*
X009625Y009787D01*
X009620Y009761D01*
X009611Y009736D01*
X009598Y009712D01*
X009583Y009690D01*
X009564Y009670D01*
X009544Y009653D01*
X009521Y009639D01*
X009496Y009628D01*
X009470Y009621D01*
X009443Y009617D01*
X009417Y009617D01*
X009390Y009621D01*
X009364Y009628D01*
X009339Y009639D01*
X009316Y009653D01*
X009296Y009670D01*
X009277Y009690D01*
X009262Y009712D01*
X009249Y009736D01*
X009240Y009761D01*
X009235Y009787D01*
X009233Y009814D01*
X008627Y009814D02*
X008625Y009787D01*
X008620Y009761D01*
X008611Y009736D01*
X008598Y009712D01*
X008583Y009690D01*
X008564Y009670D01*
X008544Y009653D01*
X008521Y009639D01*
X008496Y009628D01*
X008470Y009621D01*
X008443Y009617D01*
X008417Y009617D01*
X008390Y009621D01*
X008364Y009628D01*
X008339Y009639D01*
X008316Y009653D01*
X008296Y009670D01*
X008277Y009690D01*
X008262Y009712D01*
X008249Y009736D01*
X008240Y009761D01*
X008235Y009787D01*
X008233Y009814D01*
X007627Y009814D02*
X007625Y009787D01*
X007620Y009761D01*
X007611Y009736D01*
X007598Y009712D01*
X007583Y009690D01*
X007564Y009670D01*
X007544Y009653D01*
X007521Y009639D01*
X007496Y009628D01*
X007470Y009621D01*
X007443Y009617D01*
X007417Y009617D01*
X007390Y009621D01*
X007364Y009628D01*
X007339Y009639D01*
X007316Y009653D01*
X007296Y009670D01*
X007277Y009690D01*
X007262Y009712D01*
X007249Y009736D01*
X007240Y009761D01*
X007235Y009787D01*
X007233Y009814D01*
X006627Y009814D02*
X006625Y009787D01*
X006620Y009761D01*
X006611Y009736D01*
X006598Y009712D01*
X006583Y009690D01*
X006564Y009670D01*
X006544Y009653D01*
X006521Y009639D01*
X006496Y009628D01*
X006470Y009621D01*
X006443Y009617D01*
X006417Y009617D01*
X006390Y009621D01*
X006364Y009628D01*
X006339Y009639D01*
X006316Y009653D01*
X006296Y009670D01*
X006277Y009690D01*
X006262Y009712D01*
X006249Y009736D01*
X006240Y009761D01*
X006235Y009787D01*
X006233Y009814D01*
X005627Y009814D02*
X005625Y009787D01*
X005620Y009761D01*
X005611Y009736D01*
X005598Y009712D01*
X005583Y009690D01*
X005564Y009670D01*
X005544Y009653D01*
X005521Y009639D01*
X005496Y009628D01*
X005470Y009621D01*
X005443Y009617D01*
X005417Y009617D01*
X005390Y009621D01*
X005364Y009628D01*
X005339Y009639D01*
X005316Y009653D01*
X005296Y009670D01*
X005277Y009690D01*
X005262Y009712D01*
X005249Y009736D01*
X005240Y009761D01*
X005235Y009787D01*
X005233Y009814D01*
X004627Y009814D02*
X004625Y009787D01*
X004620Y009761D01*
X004611Y009736D01*
X004598Y009712D01*
X004583Y009690D01*
X004564Y009670D01*
X004544Y009653D01*
X004521Y009639D01*
X004496Y009628D01*
X004470Y009621D01*
X004443Y009617D01*
X004417Y009617D01*
X004390Y009621D01*
X004364Y009628D01*
X004339Y009639D01*
X004316Y009653D01*
X004296Y009670D01*
X004277Y009690D01*
X004262Y009712D01*
X004249Y009736D01*
X004240Y009761D01*
X004235Y009787D01*
X004233Y009814D01*
X003891Y006877D02*
X003918Y006875D01*
X003944Y006870D01*
X003969Y006861D01*
X003993Y006848D01*
X004015Y006833D01*
X004035Y006814D01*
X004052Y006794D01*
X004066Y006771D01*
X004077Y006746D01*
X004084Y006720D01*
X004088Y006693D01*
X004088Y006667D01*
X004084Y006640D01*
X004077Y006614D01*
X004066Y006589D01*
X004052Y006566D01*
X004035Y006546D01*
X004015Y006527D01*
X003993Y006512D01*
X003969Y006499D01*
X003944Y006490D01*
X003918Y006485D01*
X003891Y006483D01*
X003891Y005877D02*
X003918Y005875D01*
X003944Y005870D01*
X003969Y005861D01*
X003993Y005848D01*
X004015Y005833D01*
X004035Y005814D01*
X004052Y005794D01*
X004066Y005771D01*
X004077Y005746D01*
X004084Y005720D01*
X004088Y005693D01*
X004088Y005667D01*
X004084Y005640D01*
X004077Y005614D01*
X004066Y005589D01*
X004052Y005566D01*
X004035Y005546D01*
X004015Y005527D01*
X003993Y005512D01*
X003969Y005499D01*
X003944Y005490D01*
X003918Y005485D01*
X003891Y005483D01*
X003891Y004877D02*
X003918Y004875D01*
X003944Y004870D01*
X003969Y004861D01*
X003993Y004848D01*
X004015Y004833D01*
X004035Y004814D01*
X004052Y004794D01*
X004066Y004771D01*
X004077Y004746D01*
X004084Y004720D01*
X004088Y004693D01*
X004088Y004667D01*
X004084Y004640D01*
X004077Y004614D01*
X004066Y004589D01*
X004052Y004566D01*
X004035Y004546D01*
X004015Y004527D01*
X003993Y004512D01*
X003969Y004499D01*
X003944Y004490D01*
X003918Y004485D01*
X003891Y004483D01*
X004233Y001546D02*
X004235Y001573D01*
X004240Y001599D01*
X004249Y001624D01*
X004262Y001648D01*
X004277Y001670D01*
X004296Y001690D01*
X004316Y001707D01*
X004339Y001721D01*
X004364Y001732D01*
X004390Y001739D01*
X004417Y001743D01*
X004443Y001743D01*
X004470Y001739D01*
X004496Y001732D01*
X004521Y001721D01*
X004544Y001707D01*
X004564Y001690D01*
X004583Y001670D01*
X004598Y001648D01*
X004611Y001624D01*
X004620Y001599D01*
X004625Y001573D01*
X004627Y001546D01*
X005233Y001546D02*
X005235Y001573D01*
X005240Y001599D01*
X005249Y001624D01*
X005262Y001648D01*
X005277Y001670D01*
X005296Y001690D01*
X005316Y001707D01*
X005339Y001721D01*
X005364Y001732D01*
X005390Y001739D01*
X005417Y001743D01*
X005443Y001743D01*
X005470Y001739D01*
X005496Y001732D01*
X005521Y001721D01*
X005544Y001707D01*
X005564Y001690D01*
X005583Y001670D01*
X005598Y001648D01*
X005611Y001624D01*
X005620Y001599D01*
X005625Y001573D01*
X005627Y001546D01*
X006233Y001546D02*
X006235Y001573D01*
X006240Y001599D01*
X006249Y001624D01*
X006262Y001648D01*
X006277Y001670D01*
X006296Y001690D01*
X006316Y001707D01*
X006339Y001721D01*
X006364Y001732D01*
X006390Y001739D01*
X006417Y001743D01*
X006443Y001743D01*
X006470Y001739D01*
X006496Y001732D01*
X006521Y001721D01*
X006544Y001707D01*
X006564Y001690D01*
X006583Y001670D01*
X006598Y001648D01*
X006611Y001624D01*
X006620Y001599D01*
X006625Y001573D01*
X006627Y001546D01*
X007233Y001546D02*
X007235Y001573D01*
X007240Y001599D01*
X007249Y001624D01*
X007262Y001648D01*
X007277Y001670D01*
X007296Y001690D01*
X007316Y001707D01*
X007339Y001721D01*
X007364Y001732D01*
X007390Y001739D01*
X007417Y001743D01*
X007443Y001743D01*
X007470Y001739D01*
X007496Y001732D01*
X007521Y001721D01*
X007544Y001707D01*
X007564Y001690D01*
X007583Y001670D01*
X007598Y001648D01*
X007611Y001624D01*
X007620Y001599D01*
X007625Y001573D01*
X007627Y001546D01*
X008233Y001546D02*
X008235Y001573D01*
X008240Y001599D01*
X008249Y001624D01*
X008262Y001648D01*
X008277Y001670D01*
X008296Y001690D01*
X008316Y001707D01*
X008339Y001721D01*
X008364Y001732D01*
X008390Y001739D01*
X008417Y001743D01*
X008443Y001743D01*
X008470Y001739D01*
X008496Y001732D01*
X008521Y001721D01*
X008544Y001707D01*
X008564Y001690D01*
X008583Y001670D01*
X008598Y001648D01*
X008611Y001624D01*
X008620Y001599D01*
X008625Y001573D01*
X008627Y001546D01*
X009233Y001546D02*
X009235Y001573D01*
X009240Y001599D01*
X009249Y001624D01*
X009262Y001648D01*
X009277Y001670D01*
X009296Y001690D01*
X009316Y001707D01*
X009339Y001721D01*
X009364Y001732D01*
X009390Y001739D01*
X009417Y001743D01*
X009443Y001743D01*
X009470Y001739D01*
X009496Y001732D01*
X009521Y001721D01*
X009544Y001707D01*
X009564Y001690D01*
X009583Y001670D01*
X009598Y001648D01*
X009611Y001624D01*
X009620Y001599D01*
X009625Y001573D01*
X009627Y001546D01*
X010233Y001546D02*
X010235Y001573D01*
X010240Y001599D01*
X010249Y001624D01*
X010262Y001648D01*
X010277Y001670D01*
X010296Y001690D01*
X010316Y001707D01*
X010339Y001721D01*
X010364Y001732D01*
X010390Y001739D01*
X010417Y001743D01*
X010443Y001743D01*
X010470Y001739D01*
X010496Y001732D01*
X010521Y001721D01*
X010544Y001707D01*
X010564Y001690D01*
X010583Y001670D01*
X010598Y001648D01*
X010611Y001624D01*
X010620Y001599D01*
X010625Y001573D01*
X010627Y001546D01*
X011233Y001546D02*
X011235Y001573D01*
X011240Y001599D01*
X011249Y001624D01*
X011262Y001648D01*
X011277Y001670D01*
X011296Y001690D01*
X011316Y001707D01*
X011339Y001721D01*
X011364Y001732D01*
X011390Y001739D01*
X011417Y001743D01*
X011443Y001743D01*
X011470Y001739D01*
X011496Y001732D01*
X011521Y001721D01*
X011544Y001707D01*
X011564Y001690D01*
X011583Y001670D01*
X011598Y001648D01*
X011611Y001624D01*
X011620Y001599D01*
X011625Y001573D01*
X011627Y001546D01*
X012233Y001546D02*
X012235Y001573D01*
X012240Y001599D01*
X012249Y001624D01*
X012262Y001648D01*
X012277Y001670D01*
X012296Y001690D01*
X012316Y001707D01*
X012339Y001721D01*
X012364Y001732D01*
X012390Y001739D01*
X012417Y001743D01*
X012443Y001743D01*
X012470Y001739D01*
X012496Y001732D01*
X012521Y001721D01*
X012544Y001707D01*
X012564Y001690D01*
X012583Y001670D01*
X012598Y001648D01*
X012611Y001624D01*
X012620Y001599D01*
X012625Y001573D01*
X012627Y001546D01*
X013233Y001546D02*
X013235Y001573D01*
X013240Y001599D01*
X013249Y001624D01*
X013262Y001648D01*
X013277Y001670D01*
X013296Y001690D01*
X013316Y001707D01*
X013339Y001721D01*
X013364Y001732D01*
X013390Y001739D01*
X013417Y001743D01*
X013443Y001743D01*
X013470Y001739D01*
X013496Y001732D01*
X013521Y001721D01*
X013544Y001707D01*
X013564Y001690D01*
X013583Y001670D01*
X013598Y001648D01*
X013611Y001624D01*
X013620Y001599D01*
X013625Y001573D01*
X013627Y001546D01*
X014233Y001546D02*
X014235Y001573D01*
X014240Y001599D01*
X014249Y001624D01*
X014262Y001648D01*
X014277Y001670D01*
X014296Y001690D01*
X014316Y001707D01*
X014339Y001721D01*
X014364Y001732D01*
X014390Y001739D01*
X014417Y001743D01*
X014443Y001743D01*
X014470Y001739D01*
X014496Y001732D01*
X014521Y001721D01*
X014544Y001707D01*
X014564Y001690D01*
X014583Y001670D01*
X014598Y001648D01*
X014611Y001624D01*
X014620Y001599D01*
X014625Y001573D01*
X014627Y001546D01*
X015233Y001546D02*
X015235Y001573D01*
X015240Y001599D01*
X015249Y001624D01*
X015262Y001648D01*
X015277Y001670D01*
X015296Y001690D01*
X015316Y001707D01*
X015339Y001721D01*
X015364Y001732D01*
X015390Y001739D01*
X015417Y001743D01*
X015443Y001743D01*
X015470Y001739D01*
X015496Y001732D01*
X015521Y001721D01*
X015544Y001707D01*
X015564Y001690D01*
X015583Y001670D01*
X015598Y001648D01*
X015611Y001624D01*
X015620Y001599D01*
X015625Y001573D01*
X015627Y001546D01*
X016233Y001546D02*
X016235Y001573D01*
X016240Y001599D01*
X016249Y001624D01*
X016262Y001648D01*
X016277Y001670D01*
X016296Y001690D01*
X016316Y001707D01*
X016339Y001721D01*
X016364Y001732D01*
X016390Y001739D01*
X016417Y001743D01*
X016443Y001743D01*
X016470Y001739D01*
X016496Y001732D01*
X016521Y001721D01*
X016544Y001707D01*
X016564Y001690D01*
X016583Y001670D01*
X016598Y001648D01*
X016611Y001624D01*
X016620Y001599D01*
X016625Y001573D01*
X016627Y001546D01*
X017233Y001546D02*
X017235Y001573D01*
X017240Y001599D01*
X017249Y001624D01*
X017262Y001648D01*
X017277Y001670D01*
X017296Y001690D01*
X017316Y001707D01*
X017339Y001721D01*
X017364Y001732D01*
X017390Y001739D01*
X017417Y001743D01*
X017443Y001743D01*
X017470Y001739D01*
X017496Y001732D01*
X017521Y001721D01*
X017544Y001707D01*
X017564Y001690D01*
X017583Y001670D01*
X017598Y001648D01*
X017611Y001624D01*
X017620Y001599D01*
X017625Y001573D01*
X017627Y001546D01*
X018233Y001546D02*
X018235Y001573D01*
X018240Y001599D01*
X018249Y001624D01*
X018262Y001648D01*
X018277Y001670D01*
X018296Y001690D01*
X018316Y001707D01*
X018339Y001721D01*
X018364Y001732D01*
X018390Y001739D01*
X018417Y001743D01*
X018443Y001743D01*
X018470Y001739D01*
X018496Y001732D01*
X018521Y001721D01*
X018544Y001707D01*
X018564Y001690D01*
X018583Y001670D01*
X018598Y001648D01*
X018611Y001624D01*
X018620Y001599D01*
X018625Y001573D01*
X018627Y001546D01*
X019233Y001546D02*
X019235Y001573D01*
X019240Y001599D01*
X019249Y001624D01*
X019262Y001648D01*
X019277Y001670D01*
X019296Y001690D01*
X019316Y001707D01*
X019339Y001721D01*
X019364Y001732D01*
X019390Y001739D01*
X019417Y001743D01*
X019443Y001743D01*
X019470Y001739D01*
X019496Y001732D01*
X019521Y001721D01*
X019544Y001707D01*
X019564Y001690D01*
X019583Y001670D01*
X019598Y001648D01*
X019611Y001624D01*
X019620Y001599D01*
X019625Y001573D01*
X019627Y001546D01*
X020233Y001546D02*
X020235Y001573D01*
X020240Y001599D01*
X020249Y001624D01*
X020262Y001648D01*
X020277Y001670D01*
X020296Y001690D01*
X020316Y001707D01*
X020339Y001721D01*
X020364Y001732D01*
X020390Y001739D01*
X020417Y001743D01*
X020443Y001743D01*
X020470Y001739D01*
X020496Y001732D01*
X020521Y001721D01*
X020544Y001707D01*
X020564Y001690D01*
X020583Y001670D01*
X020598Y001648D01*
X020611Y001624D01*
X020620Y001599D01*
X020625Y001573D01*
X020627Y001546D01*
X021233Y001546D02*
X021235Y001573D01*
X021240Y001599D01*
X021249Y001624D01*
X021262Y001648D01*
X021277Y001670D01*
X021296Y001690D01*
X021316Y001707D01*
X021339Y001721D01*
X021364Y001732D01*
X021390Y001739D01*
X021417Y001743D01*
X021443Y001743D01*
X021470Y001739D01*
X021496Y001732D01*
X021521Y001721D01*
X021544Y001707D01*
X021564Y001690D01*
X021583Y001670D01*
X021598Y001648D01*
X021611Y001624D01*
X021620Y001599D01*
X021625Y001573D01*
X021627Y001546D01*
X022233Y001546D02*
X022235Y001573D01*
X022240Y001599D01*
X022249Y001624D01*
X022262Y001648D01*
X022277Y001670D01*
X022296Y001690D01*
X022316Y001707D01*
X022339Y001721D01*
X022364Y001732D01*
X022390Y001739D01*
X022417Y001743D01*
X022443Y001743D01*
X022470Y001739D01*
X022496Y001732D01*
X022521Y001721D01*
X022544Y001707D01*
X022564Y001690D01*
X022583Y001670D01*
X022598Y001648D01*
X022611Y001624D01*
X022620Y001599D01*
X022625Y001573D01*
X022627Y001546D01*
X023233Y001546D02*
X023235Y001573D01*
X023240Y001599D01*
X023249Y001624D01*
X023262Y001648D01*
X023277Y001670D01*
X023296Y001690D01*
X023316Y001707D01*
X023339Y001721D01*
X023364Y001732D01*
X023390Y001739D01*
X023417Y001743D01*
X023443Y001743D01*
X023470Y001739D01*
X023496Y001732D01*
X023521Y001721D01*
X023544Y001707D01*
X023564Y001690D01*
X023583Y001670D01*
X023598Y001648D01*
X023611Y001624D01*
X023620Y001599D01*
X023625Y001573D01*
X023627Y001546D01*
X024481Y004105D02*
X021804Y004105D01*
X021804Y007255D01*
X024481Y007255D01*
X024481Y004105D01*
D15*
X002038Y002171D02*
X001918Y002111D01*
X001798Y001991D01*
X001978Y001991D01*
X002038Y001931D01*
X002038Y001871D01*
X001978Y001811D01*
X001858Y001811D01*
X001798Y001871D01*
X001798Y001991D01*
X001674Y001871D02*
X001674Y001811D01*
X001614Y001811D01*
X001614Y001871D01*
X001674Y001871D01*
X001486Y001811D02*
X001246Y001811D01*
X001366Y001811D02*
X001366Y002171D01*
X001246Y002051D01*
M02*
