G75*
%MOIN*%
%OFA0B0*%
%FSLAX24Y24*%
%IPPOS*%
%LPD*%
%AMOC8*
5,1,8,0,0,1.08239X$1,22.5*
%
%ADD10C,0.0050*%
%ADD11C,0.0030*%
%ADD12C,0.0059*%
D10*
X009746Y005057D02*
X009848Y004955D01*
X010052Y004955D01*
X010153Y005057D01*
X010153Y005260D01*
X010052Y005362D01*
X009848Y005362D01*
X009746Y005260D01*
X009746Y005057D01*
X010354Y004955D02*
X010761Y005362D01*
X010962Y005362D02*
X011267Y005362D01*
X011369Y005260D01*
X011369Y005057D01*
X011267Y004955D01*
X010962Y004955D01*
X010962Y005566D01*
X011570Y005260D02*
X011671Y005362D01*
X011875Y005362D01*
X011977Y005260D01*
X011977Y005057D01*
X011875Y004955D01*
X011671Y004955D01*
X011570Y005057D01*
X011570Y005260D01*
X012177Y005566D02*
X012177Y004955D01*
X012584Y004955D02*
X012584Y005566D01*
X012381Y005362D01*
X012177Y005566D01*
X013393Y005362D02*
X013495Y005362D01*
X013698Y005159D01*
X013899Y005260D02*
X013899Y005057D01*
X014001Y004955D01*
X014204Y004955D01*
X014306Y005057D01*
X014306Y005260D01*
X014204Y005362D01*
X014001Y005362D01*
X013899Y005260D01*
X013698Y005362D02*
X013698Y004955D01*
X014508Y005260D02*
X014711Y005260D01*
X014610Y005464D02*
X014508Y005566D01*
X014610Y005464D02*
X014610Y004955D01*
X015520Y004955D02*
X015927Y005566D01*
X016229Y005362D02*
X016433Y005362D01*
X016534Y005260D01*
X016534Y005057D01*
X016433Y004955D01*
X016229Y004955D01*
X016127Y005057D01*
X016127Y005260D01*
X016229Y005362D01*
X016735Y005362D02*
X017040Y005362D01*
X017142Y005260D01*
X017142Y005057D01*
X017040Y004955D01*
X016735Y004955D01*
X017344Y004955D02*
X017547Y004955D01*
X017446Y004955D02*
X017446Y005362D01*
X017547Y005362D01*
X017748Y005260D02*
X017850Y005159D01*
X018155Y005159D01*
X018155Y004955D02*
X018155Y005566D01*
X017850Y005566D01*
X017748Y005464D01*
X017748Y005260D01*
X017446Y005566D02*
X017446Y005667D01*
X015927Y004955D02*
X015520Y005566D01*
X010761Y004955D02*
X010354Y005362D01*
D11*
X007114Y003630D02*
X007114Y003507D01*
X007176Y003445D01*
X007299Y003445D01*
X007361Y003507D01*
X007361Y003630D01*
X007299Y003692D01*
X007176Y003692D01*
X007114Y003630D01*
X007483Y003692D02*
X007729Y003445D01*
X007851Y003445D02*
X008036Y003445D01*
X008098Y003507D01*
X008098Y003630D01*
X008036Y003692D01*
X007851Y003692D01*
X007729Y003692D02*
X007483Y003445D01*
X007851Y003445D02*
X007851Y003815D01*
X008219Y003630D02*
X008281Y003692D01*
X008404Y003692D01*
X008466Y003630D01*
X008466Y003507D01*
X008404Y003445D01*
X008281Y003445D01*
X008219Y003507D01*
X008219Y003630D01*
X008587Y003630D02*
X008587Y003445D01*
X008711Y003445D02*
X008711Y003630D01*
X008649Y003692D01*
X008587Y003630D01*
X008711Y003630D02*
X008773Y003692D01*
X008834Y003692D01*
X008834Y003445D01*
X009203Y003445D02*
X008956Y003815D01*
X009324Y003630D02*
X009386Y003692D01*
X009509Y003692D01*
X009509Y003568D02*
X009324Y003568D01*
X009324Y003630D02*
X009324Y003445D01*
X009509Y003445D01*
X009571Y003507D01*
X009509Y003568D01*
X009692Y003692D02*
X009816Y003445D01*
X009939Y003692D01*
X010061Y003630D02*
X010061Y003445D01*
X010184Y003445D02*
X010184Y003630D01*
X010122Y003692D01*
X010061Y003630D01*
X010184Y003630D02*
X010246Y003692D01*
X010308Y003692D01*
X010308Y003445D01*
X010429Y003445D02*
X010676Y003692D01*
X010860Y003815D02*
X010860Y003445D01*
X010921Y003445D02*
X010798Y003445D01*
X010676Y003445D02*
X010429Y003692D01*
X010860Y003815D02*
X010921Y003815D01*
X011105Y003692D02*
X011043Y003630D01*
X011043Y003445D01*
X011228Y003445D01*
X011290Y003507D01*
X011228Y003568D01*
X011043Y003568D01*
X011105Y003692D02*
X011228Y003692D01*
X011411Y003630D02*
X011411Y003445D01*
X011411Y003630D02*
X011473Y003692D01*
X011596Y003692D01*
X011658Y003630D01*
X011780Y003692D02*
X011965Y003692D01*
X012026Y003630D01*
X011965Y003568D01*
X011841Y003568D01*
X011780Y003507D01*
X011841Y003445D01*
X012026Y003445D01*
X012395Y003445D02*
X012148Y003815D01*
X011903Y004072D02*
X011841Y004072D01*
X011780Y004133D01*
X011780Y004442D01*
X011965Y004442D01*
X012026Y004380D01*
X012026Y004257D01*
X011965Y004195D01*
X011780Y004195D01*
X011658Y004195D02*
X011535Y004195D01*
X011596Y004195D02*
X011596Y004565D01*
X011658Y004565D01*
X011413Y004380D02*
X011351Y004442D01*
X011227Y004442D01*
X011166Y004380D01*
X011166Y004257D01*
X011227Y004195D01*
X011351Y004195D01*
X011413Y004257D01*
X011413Y004380D01*
X011044Y004442D02*
X011044Y004257D01*
X010983Y004195D01*
X010921Y004257D01*
X010859Y004195D01*
X010797Y004257D01*
X010797Y004442D01*
X010676Y004380D02*
X010614Y004442D01*
X010491Y004442D01*
X010429Y004380D01*
X010429Y004318D01*
X010676Y004318D01*
X010676Y004257D02*
X010676Y004380D01*
X010676Y004257D02*
X010614Y004195D01*
X010491Y004195D01*
X010308Y004195D02*
X010184Y004195D01*
X010246Y004195D02*
X010246Y004565D01*
X010308Y004565D01*
X010062Y004380D02*
X010000Y004442D01*
X009877Y004442D01*
X009815Y004380D01*
X009815Y004318D01*
X010062Y004318D01*
X010062Y004257D02*
X010062Y004380D01*
X010062Y004257D02*
X010000Y004195D01*
X009877Y004195D01*
X009694Y004257D02*
X009632Y004195D01*
X009447Y004195D01*
X009264Y004257D02*
X009202Y004195D01*
X009264Y004257D02*
X009264Y004504D01*
X009325Y004442D02*
X009202Y004442D01*
X009080Y004442D02*
X009080Y004195D01*
X008773Y004257D02*
X008711Y004195D01*
X008588Y004195D01*
X008526Y004257D01*
X008526Y004380D01*
X008588Y004442D01*
X008711Y004442D01*
X008773Y004380D01*
X008773Y004257D01*
X008956Y004442D02*
X009080Y004318D01*
X008956Y004442D02*
X008895Y004442D01*
X008405Y004442D02*
X008220Y004442D01*
X008158Y004380D01*
X008158Y004195D01*
X008036Y004195D02*
X007913Y004195D01*
X007975Y004195D02*
X007975Y004442D01*
X008036Y004442D01*
X007975Y004565D02*
X007975Y004627D01*
X007729Y004442D02*
X007791Y004380D01*
X007791Y004257D01*
X007729Y004195D01*
X007544Y004195D01*
X007422Y004195D02*
X007237Y004195D01*
X007176Y004257D01*
X007237Y004318D01*
X007361Y004318D01*
X007422Y004380D01*
X007361Y004442D01*
X007176Y004442D01*
X007544Y004442D02*
X007729Y004442D01*
X008405Y004442D02*
X008405Y004195D01*
X009447Y004442D02*
X009632Y004442D01*
X009694Y004380D01*
X009694Y004257D01*
X011658Y003815D02*
X011658Y003445D01*
X012516Y003445D02*
X012516Y003630D01*
X012578Y003692D01*
X012640Y003630D01*
X012640Y003445D01*
X012763Y003445D02*
X012763Y003692D01*
X012701Y003692D01*
X012640Y003630D01*
X012884Y003630D02*
X012884Y003507D01*
X012946Y003445D01*
X013070Y003445D01*
X013131Y003507D01*
X013131Y003630D01*
X013070Y003692D01*
X012946Y003692D01*
X012884Y003630D01*
X013253Y003692D02*
X013438Y003692D01*
X013500Y003630D01*
X013500Y003507D01*
X013438Y003445D01*
X013253Y003445D01*
X013622Y003445D02*
X013684Y003445D01*
X013684Y003507D01*
X013622Y003507D01*
X013622Y003445D01*
X013805Y003507D02*
X013805Y003630D01*
X013867Y003692D01*
X014052Y003692D01*
X014174Y003692D02*
X014174Y003445D01*
X014359Y003445D01*
X014420Y003507D01*
X014420Y003692D01*
X014542Y003630D02*
X014604Y003692D01*
X014727Y003692D01*
X014789Y003630D01*
X014911Y003692D02*
X015034Y003692D01*
X014973Y003754D02*
X014973Y003507D01*
X014911Y003445D01*
X014789Y003445D02*
X014789Y003815D01*
X014542Y003630D02*
X014542Y003445D01*
X014052Y003445D02*
X013867Y003445D01*
X013805Y003507D01*
X014052Y003445D02*
X014052Y003815D01*
X014052Y004195D02*
X013867Y004195D01*
X013805Y004257D01*
X013805Y004380D01*
X013867Y004442D01*
X014052Y004442D01*
X014174Y004442D02*
X014174Y004195D01*
X014359Y004195D01*
X014420Y004257D01*
X014420Y004442D01*
X014542Y004380D02*
X014604Y004442D01*
X014727Y004442D01*
X014789Y004380D01*
X014911Y004442D02*
X015034Y004442D01*
X014973Y004504D02*
X014973Y004257D01*
X014911Y004195D01*
X014789Y004195D02*
X014789Y004565D01*
X014542Y004380D02*
X014542Y004195D01*
X014052Y004195D02*
X014052Y004565D01*
X013500Y004380D02*
X013500Y004257D01*
X013438Y004195D01*
X013253Y004195D01*
X013131Y004257D02*
X013070Y004195D01*
X012946Y004195D01*
X012884Y004257D01*
X012884Y004380D01*
X012946Y004442D01*
X013070Y004442D01*
X013131Y004380D01*
X013131Y004257D01*
X012763Y004195D02*
X012763Y004442D01*
X012701Y004442D01*
X012640Y004380D01*
X012578Y004442D01*
X012516Y004380D01*
X012516Y004195D01*
X012395Y004195D02*
X012148Y004565D01*
X012640Y004380D02*
X012640Y004195D01*
X013253Y004442D02*
X013438Y004442D01*
X013500Y004380D01*
X013622Y004257D02*
X013622Y004195D01*
X013684Y004195D01*
X013684Y004257D01*
X013622Y004257D01*
X015156Y004195D02*
X015280Y004195D01*
X015218Y004195D02*
X015218Y004442D01*
X015280Y004442D01*
X015401Y004442D02*
X015586Y004442D01*
X015648Y004380D01*
X015648Y004257D01*
X015586Y004195D01*
X015401Y004195D01*
X015401Y004133D02*
X015401Y004442D01*
X015218Y004565D02*
X015218Y004627D01*
X015770Y004565D02*
X016016Y004195D01*
X016385Y004195D02*
X016138Y004565D01*
X016507Y004442D02*
X016507Y004380D01*
X016569Y004380D01*
X016569Y004442D01*
X016507Y004442D01*
X016690Y004442D02*
X016876Y004442D01*
X016937Y004380D01*
X016876Y004318D01*
X016752Y004318D01*
X016690Y004257D01*
X016752Y004195D01*
X016937Y004195D01*
X017059Y004257D02*
X017120Y004195D01*
X017306Y004195D01*
X017428Y004195D02*
X017489Y004257D01*
X017489Y004504D01*
X017428Y004442D02*
X017551Y004442D01*
X017673Y004442D02*
X017797Y004442D01*
X017735Y004504D02*
X017735Y004257D01*
X017673Y004195D01*
X017918Y004195D02*
X017918Y004380D01*
X017980Y004442D01*
X018103Y004442D01*
X018165Y004380D01*
X018165Y004565D02*
X018165Y004195D01*
X018165Y003815D02*
X018165Y003445D01*
X018165Y003630D02*
X018103Y003692D01*
X017980Y003692D01*
X017918Y003630D01*
X017918Y003445D01*
X017735Y003507D02*
X017673Y003445D01*
X017735Y003507D02*
X017735Y003754D01*
X017797Y003692D02*
X017673Y003692D01*
X017551Y003692D02*
X017428Y003692D01*
X017489Y003754D02*
X017489Y003507D01*
X017428Y003445D01*
X017306Y003445D02*
X017120Y003445D01*
X017059Y003507D01*
X017059Y003630D01*
X017120Y003692D01*
X017306Y003692D01*
X017306Y003322D01*
X016937Y003445D02*
X016752Y003445D01*
X016690Y003507D01*
X016752Y003568D01*
X016876Y003568D01*
X016937Y003630D01*
X016876Y003692D01*
X016690Y003692D01*
X016569Y003692D02*
X016569Y003630D01*
X016507Y003630D01*
X016507Y003692D01*
X016569Y003692D01*
X016569Y003507D02*
X016569Y003445D01*
X016507Y003445D01*
X016507Y003507D01*
X016569Y003507D01*
X016385Y003445D02*
X016138Y003815D01*
X015770Y003815D02*
X016016Y003445D01*
X015648Y003507D02*
X015586Y003445D01*
X015401Y003445D01*
X015401Y003383D02*
X015401Y003692D01*
X015586Y003692D01*
X015648Y003630D01*
X015648Y003507D01*
X015525Y003322D02*
X015463Y003322D01*
X015401Y003383D01*
X015280Y003445D02*
X015156Y003445D01*
X015218Y003445D02*
X015218Y003692D01*
X015280Y003692D01*
X015218Y003815D02*
X015218Y003877D01*
X015463Y004072D02*
X015401Y004133D01*
X015463Y004072D02*
X015525Y004072D01*
X016507Y004195D02*
X016569Y004195D01*
X016569Y004257D01*
X016507Y004257D01*
X016507Y004195D01*
X017059Y004257D02*
X017059Y004380D01*
X017120Y004442D01*
X017306Y004442D01*
X017306Y004072D01*
X006076Y004995D02*
X006076Y005365D01*
X005891Y005365D01*
X005829Y005304D01*
X005829Y005180D01*
X005891Y005118D01*
X006076Y005118D01*
X005953Y005118D02*
X005829Y004995D01*
X005523Y004995D02*
X005523Y005365D01*
X005708Y005180D01*
X005461Y005180D01*
X005480Y005995D02*
X005603Y005995D01*
X005665Y006057D01*
X005786Y005995D02*
X005910Y006118D01*
X005848Y006118D02*
X006033Y006118D01*
X006033Y005995D02*
X006033Y006365D01*
X005848Y006365D01*
X005786Y006304D01*
X005786Y006180D01*
X005848Y006118D01*
X005542Y006180D02*
X005480Y006180D01*
X005418Y006118D01*
X005418Y006057D01*
X005480Y005995D01*
X005480Y006180D02*
X005418Y006242D01*
X005418Y006304D01*
X005480Y006365D01*
X005603Y006365D01*
X005665Y006304D01*
X005665Y006995D02*
X005418Y006995D01*
X005665Y006995D02*
X005418Y007242D01*
X005418Y007304D01*
X005480Y007365D01*
X005603Y007365D01*
X005665Y007304D01*
X005786Y007304D02*
X005786Y007180D01*
X005848Y007118D01*
X006033Y007118D01*
X006033Y006995D02*
X006033Y007365D01*
X005848Y007365D01*
X005786Y007304D01*
X005910Y007118D02*
X005786Y006995D01*
X005829Y007995D02*
X005953Y008118D01*
X005891Y008118D02*
X006076Y008118D01*
X006076Y007995D02*
X006076Y008365D01*
X005891Y008365D01*
X005829Y008304D01*
X005829Y008180D01*
X005891Y008118D01*
X005708Y007995D02*
X005461Y007995D01*
X005584Y007995D02*
X005584Y008365D01*
X005708Y008242D01*
D12*
X018562Y004598D02*
X018562Y004262D01*
X019007Y004217D01*
X019036Y004116D01*
X019076Y004020D01*
X019127Y003928D01*
X018844Y003582D01*
X019082Y003344D01*
X019428Y003627D01*
X019496Y003588D01*
X019567Y003555D01*
X019765Y004032D01*
X019694Y004070D01*
X019631Y004120D01*
X019578Y004182D01*
X019538Y004252D01*
X019512Y004328D01*
X019500Y004408D01*
X019503Y004489D01*
X019522Y004567D01*
X019555Y004641D01*
X019601Y004707D01*
X019658Y004764D01*
X019725Y004809D01*
X019800Y004840D01*
X019879Y004858D01*
X019959Y004860D01*
X020039Y004847D01*
X020115Y004819D01*
X020184Y004778D01*
X020245Y004724D01*
X020294Y004660D01*
X020331Y004588D01*
X020353Y004510D01*
X020361Y004430D01*
X020355Y004358D01*
X020336Y004288D01*
X020307Y004222D01*
X020267Y004162D01*
X020217Y004109D01*
X020159Y004065D01*
X020095Y004032D01*
X020293Y003555D01*
X020364Y003588D01*
X020432Y003627D01*
X020778Y003344D01*
X021016Y003582D01*
X020733Y003928D01*
X020784Y004020D01*
X020824Y004116D01*
X020853Y004217D01*
X021298Y004262D01*
X021298Y004598D01*
X020853Y004643D01*
X020824Y004744D01*
X020784Y004840D01*
X020733Y004932D01*
X021016Y005278D01*
X020778Y005516D01*
X020432Y005233D01*
X020340Y005284D01*
X020244Y005324D01*
X020143Y005353D01*
X020098Y005798D01*
X019762Y005798D01*
X019717Y005353D01*
X019616Y005324D01*
X019520Y005284D01*
X019428Y005233D01*
X019082Y005516D01*
X018844Y005278D01*
X019127Y004932D01*
X019076Y004840D01*
X019036Y004744D01*
X019007Y004643D01*
X018562Y004598D01*
X018562Y004554D02*
X019519Y004554D01*
X019505Y004497D02*
X018562Y004497D01*
X018562Y004439D02*
X019501Y004439D01*
X019504Y004382D02*
X018562Y004382D01*
X018562Y004324D02*
X019513Y004324D01*
X019533Y004266D02*
X018562Y004266D01*
X019009Y004209D02*
X019563Y004209D01*
X019604Y004151D02*
X019026Y004151D01*
X019045Y004094D02*
X019664Y004094D01*
X019758Y004036D02*
X019069Y004036D01*
X019099Y003979D02*
X019743Y003979D01*
X019719Y003921D02*
X019121Y003921D01*
X019074Y003864D02*
X019695Y003864D01*
X019672Y003806D02*
X019027Y003806D01*
X018980Y003748D02*
X019648Y003748D01*
X019624Y003691D02*
X018933Y003691D01*
X018886Y003633D02*
X019600Y003633D01*
X019576Y003576D02*
X019522Y003576D01*
X019366Y003576D02*
X018850Y003576D01*
X018908Y003518D02*
X019295Y003518D01*
X019225Y003461D02*
X018965Y003461D01*
X019023Y003403D02*
X019154Y003403D01*
X019083Y003346D02*
X019080Y003346D01*
X020188Y003806D02*
X020833Y003806D01*
X020880Y003748D02*
X020212Y003748D01*
X020236Y003691D02*
X020927Y003691D01*
X020974Y003633D02*
X020260Y003633D01*
X020284Y003576D02*
X020338Y003576D01*
X020494Y003576D02*
X021010Y003576D01*
X020952Y003518D02*
X020565Y003518D01*
X020635Y003461D02*
X020895Y003461D01*
X020837Y003403D02*
X020706Y003403D01*
X020777Y003346D02*
X020780Y003346D01*
X020786Y003864D02*
X020165Y003864D01*
X020141Y003921D02*
X020739Y003921D01*
X020761Y003979D02*
X020117Y003979D01*
X020103Y004036D02*
X020791Y004036D01*
X020815Y004094D02*
X020197Y004094D01*
X020257Y004151D02*
X020834Y004151D01*
X020851Y004209D02*
X020298Y004209D01*
X020327Y004266D02*
X021298Y004266D01*
X021298Y004324D02*
X020346Y004324D01*
X020357Y004382D02*
X021298Y004382D01*
X021298Y004439D02*
X020360Y004439D01*
X020354Y004497D02*
X021298Y004497D01*
X021298Y004554D02*
X020340Y004554D01*
X020319Y004612D02*
X021161Y004612D01*
X020845Y004669D02*
X020287Y004669D01*
X020241Y004727D02*
X020829Y004727D01*
X020807Y004784D02*
X020173Y004784D01*
X020052Y004842D02*
X020783Y004842D01*
X020751Y004900D02*
X019109Y004900D01*
X019106Y004957D02*
X020754Y004957D01*
X020801Y005015D02*
X019059Y005015D01*
X019012Y005072D02*
X020848Y005072D01*
X020895Y005130D02*
X018965Y005130D01*
X018918Y005187D02*
X020942Y005187D01*
X020989Y005245D02*
X020446Y005245D01*
X020411Y005245D02*
X019449Y005245D01*
X019414Y005245D02*
X018871Y005245D01*
X018868Y005302D02*
X019343Y005302D01*
X019273Y005360D02*
X018926Y005360D01*
X018983Y005418D02*
X019202Y005418D01*
X019132Y005475D02*
X019041Y005475D01*
X019564Y005302D02*
X020296Y005302D01*
X020142Y005360D02*
X019718Y005360D01*
X019723Y005418D02*
X020137Y005418D01*
X020131Y005475D02*
X019729Y005475D01*
X019735Y005533D02*
X020125Y005533D01*
X020119Y005590D02*
X019741Y005590D01*
X019747Y005648D02*
X020113Y005648D01*
X020107Y005705D02*
X019753Y005705D01*
X019759Y005763D02*
X020101Y005763D01*
X020587Y005360D02*
X020934Y005360D01*
X020877Y005418D02*
X020658Y005418D01*
X020728Y005475D02*
X020819Y005475D01*
X020992Y005302D02*
X020517Y005302D01*
X019807Y004842D02*
X019077Y004842D01*
X019053Y004784D02*
X019689Y004784D01*
X019620Y004727D02*
X019031Y004727D01*
X019015Y004669D02*
X019574Y004669D01*
X019542Y004612D02*
X018699Y004612D01*
M02*
